<?xml version="1.0" standalone="no"?>
<!DOCTYPE svg PUBLIC "-//W3C//DTD SVG 20010904//EN"
 "http://www.w3.org/TR/2001/REC-SVG-20010904/DTD/svg10.dtd">
<svg version="1.0" xmlns="http://www.w3.org/2000/svg"
 width="944.000000pt" height="944.000000pt" viewBox="0 0 944.000000 944.000000"
 preserveAspectRatio="xMidYMid meet">
<metadata>
Created by potrace 1.11, written by Peter Selinger 2001-2013
</metadata>
<g transform="translate(0.000000,944.000000) scale(0.100000,-0.100000)"
fill="#000000" stroke="none">
<path d="M3687 9403 c-1 0 -83 -4 -182 -7 -99 -4 -214 -9 -255 -11 -41 -2
-124 -7 -185 -10 -60 -3 -126 -8 -145 -10 -19 -2 -78 -6 -130 -10 -52 -3 -113
-8 -135 -10 -22 -2 -74 -7 -115 -10 -41 -4 -87 -8 -103 -10 -15 -2 -62 -7
-105 -10 -42 -4 -84 -9 -92 -10 -8 -2 -49 -6 -90 -10 -41 -3 -86 -8 -100 -10
-14 -2 -50 -6 -80 -10 -30 -3 -71 -8 -90 -10 -259 -34 -360 -47 -385 -50 -63
-9 -191 -27 -205 -30 -8 -2 -37 -6 -65 -9 -54 -7 -96 -14 -135 -21 -14 -2 -45
-7 -70 -10 -25 -4 -56 -8 -70 -10 -50 -8 -96 -16 -150 -25 -30 -5 -72 -12 -94
-15 -21 -2 -46 -7 -55 -9 -9 -3 -36 -7 -60 -10 -132 -15 -131 -15 -132 -55 -5
-221 0 -8623 5 -8628 3 -4 12 -8 19 -9 7 -1 32 -5 57 -9 25 -3 86 -13 135 -21
50 -9 104 -17 120 -20 17 -2 41 -6 55 -9 14 -2 41 -6 60 -9 19 -3 94 -14 165
-25 72 -11 150 -23 175 -26 25 -3 56 -8 70 -10 40 -6 104 -15 145 -20 21 -3
50 -7 64 -10 14 -2 49 -6 76 -10 28 -3 61 -7 74 -10 13 -2 49 -7 80 -10 31 -4
66 -8 79 -10 13 -2 53 -7 90 -11 37 -3 75 -8 84 -9 9 -2 48 -7 85 -10 37 -4
78 -8 90 -10 12 -2 57 -7 100 -10 43 -4 87 -9 97 -11 11 -2 60 -6 110 -10 50
-3 99 -8 108 -9 10 -2 59 -7 110 -10 51 -4 109 -8 128 -10 19 -2 85 -6 145
-10 61 -3 135 -8 165 -10 370 -27 1374 -27 1650 0 19 1 73 6 120 9 163 13 247
21 370 36 41 5 98 12 125 15 28 3 61 8 75 10 31 6 71 12 130 20 41 6 210 37
270 50 14 2 61 12 105 21 355 71 815 218 1115 356 171 79 201 94 330 166 398
220 784 536 1063 871 114 138 265 360 364 536 35 63 173 341 173 350 0 2 11
28 24 57 62 141 193 549 220 689 2 13 16 80 30 149 14 69 28 142 32 164 3 21
7 46 9 55 2 15 12 77 20 131 7 45 24 193 30 265 4 39 8 84 10 100 26 219 26
1004 0 1250 -2 22 -7 69 -10 105 -3 36 -8 79 -10 95 -11 87 -16 124 -20 165
-3 25 -8 54 -10 66 -3 12 -7 39 -10 60 -3 21 -17 98 -31 169 -214 1098 -747
1935 -1594 2501 -401 269 -892 483 -1430 623 -63 17 -124 33 -135 35 -90 24
-416 88 -515 101 -14 2 -41 6 -60 9 -19 3 -48 8 -65 11 -16 3 -48 7 -70 10
-22 3 -56 7 -75 10 -19 2 -62 7 -95 11 -33 4 -73 8 -90 10 -16 2 -57 6 -90 9
-33 2 -80 7 -105 10 -25 3 -85 7 -135 10 -49 3 -106 8 -125 10 -93 12 -1043
28 -1053 18z m754 -327 c118 -4 226 -8 240 -11 13 -2 74 -6 134 -10 61 -4 124
-8 140 -9 17 -2 64 -7 105 -10 41 -4 89 -9 105 -11 17 -3 59 -7 95 -11 36 -3
72 -8 81 -9 9 -2 40 -6 70 -10 61 -7 102 -13 139 -20 14 -3 40 -7 58 -10 17
-3 47 -7 65 -10 17 -3 43 -8 57 -10 14 -3 36 -7 50 -10 14 -3 36 -7 50 -10 14
-3 36 -7 50 -10 317 -59 710 -179 1035 -315 104 -44 412 -199 477 -241 321
-206 470 -322 667 -520 247 -249 411 -475 596 -824 104 -198 247 -587 300
-820 51 -221 82 -382 100 -515 3 -25 8 -56 10 -70 57 -371 66 -1148 19 -1565
-3 -27 -8 -70 -10 -95 -5 -49 -22 -180 -29 -220 -2 -14 -11 -68 -20 -120 -106
-624 -335 -1194 -654 -1630 -155 -211 -387 -454 -584 -612 -463 -370 -1010
-623 -1712 -793 -60 -15 -117 -28 -125 -30 -62 -13 -291 -56 -315 -59 -16 -3
-48 -7 -70 -11 -152 -24 -228 -35 -280 -41 -33 -3 -69 -8 -80 -10 -11 -2 -51
-6 -90 -9 -38 -4 -90 -8 -115 -10 -25 -3 -81 -7 -125 -11 -44 -3 -98 -7 -120
-9 -373 -34 -1313 -24 -1865 20 -30 2 -89 7 -130 10 -119 9 -264 22 -347 31
-32 4 -71 8 -88 9 -110 10 -173 17 -195 20 -14 2 -50 6 -80 10 -30 3 -73 8
-95 11 -22 3 -57 7 -77 9 -21 3 -55 7 -75 10 -21 3 -58 7 -83 10 -25 3 -76 10
-115 16 -38 5 -88 12 -110 15 -22 2 -51 7 -65 9 -14 2 -45 6 -70 10 -25 3 -56
8 -70 10 -14 2 -45 7 -70 10 -25 3 -83 12 -130 20 -47 8 -103 17 -125 20 -23
3 -50 7 -60 9 -11 2 -44 7 -72 11 l-53 7 0 4058 0 4058 27 6 c16 3 60 10 98
16 100 15 127 20 155 25 14 3 41 7 60 9 19 3 80 11 135 20 55 8 120 18 145 21
25 3 72 10 105 15 33 5 83 12 111 15 28 3 61 8 75 10 13 3 47 7 74 10 28 3
102 12 165 20 63 8 140 17 170 20 30 3 71 8 90 10 19 2 58 7 85 9 28 3 73 8
100 11 54 5 112 11 215 20 36 3 85 8 110 10 41 4 93 8 265 20 56 4 213 13 330
20 28 2 151 6 275 10 124 4 226 8 227 8 4 4 447 -1 644 -7z"/>
<path d="M3717 8643 c-1 0 -87 -4 -192 -8 -230 -7 -420 -17 -583 -30 -31 -3
-86 -7 -122 -10 -90 -7 -177 -15 -230 -20 -25 -3 -76 -8 -115 -10 -38 -3 -86
-8 -105 -10 -19 -3 -55 -7 -80 -9 -66 -6 -161 -17 -190 -21 -14 -2 -52 -7 -85
-10 -33 -4 -71 -8 -85 -10 -14 -2 -52 -7 -85 -10 -33 -4 -67 -8 -75 -10 -8 -2
-40 -7 -70 -10 -30 -3 -66 -8 -80 -10 -14 -2 -45 -6 -70 -10 -46 -5 -113 -15
-140 -20 -8 -1 -54 -8 -102 -15 -70 -9 -88 -16 -89 -29 -6 -155 1 -7344 7
-7350 5 -5 32 -11 59 -14 43 -5 145 -19 225 -32 54 -8 107 -15 155 -20 28 -3
61 -8 75 -10 39 -7 259 -34 410 -51 25 -2 61 -7 80 -9 19 -3 62 -7 95 -10 33
-3 80 -8 104 -11 24 -3 67 -7 95 -9 28 -3 78 -7 111 -10 33 -3 89 -7 125 -10
36 -3 90 -8 120 -10 30 -3 101 -7 158 -10 56 -4 119 -8 140 -10 261 -26 1324
-26 1592 -1 19 2 77 7 128 10 51 4 100 9 110 10 9 2 53 7 97 11 44 4 89 9 100
11 11 1 40 5 65 8 45 5 297 43 336 50 309 60 487 103 712 172 81 24 156 49
167 53 11 5 85 35 165 66 413 164 763 383 1050 659 65 62 98 97 211 226 150
171 344 500 453 767 78 193 159 452 190 613 2 14 11 57 19 95 9 39 18 84 20
100 20 123 27 166 32 210 4 28 8 60 10 73 4 22 11 97 20 197 26 291 27 1008 1
1165 -2 14 -7 61 -11 105 -11 119 -12 130 -19 161 -3 16 -8 52 -12 79 -3 28
-8 59 -10 70 -2 11 -7 36 -10 55 -57 345 -202 788 -341 1049 -75 139 -87 159
-168 281 -208 311 -453 555 -782 776 -70 48 -135 89 -143 92 -8 3 -32 16 -52
29 -39 24 -246 129 -310 157 -21 9 -53 23 -71 31 -159 70 -473 171 -710 230
-174 43 -505 107 -613 120 -28 3 -59 7 -70 9 -10 2 -48 7 -84 11 -36 4 -76 8
-90 10 -14 2 -54 6 -90 9 -36 4 -76 9 -90 11 -14 2 -72 7 -130 11 -58 3 -127
8 -155 10 -212 13 -969 27 -978 17z m1043 -2356 c14 -3 50 -8 80 -11 30 -4 66
-8 80 -10 14 -3 43 -7 65 -11 82 -12 293 -68 385 -102 125 -47 217 -93 315
-159 131 -88 121 -71 92 -156 -30 -87 -110 -311 -126 -351 l-11 -29 -53 54
c-74 76 -148 130 -252 182 -100 49 -280 107 -395 126 -41 7 -82 14 -90 15
-132 23 -363 32 -667 25 l-103 -2 -1 -27 c-4 -131 -1 -2232 3 -2237 8 -7 425
-8 518 0 118 10 173 16 270 31 55 9 63 10 120 24 25 6 50 11 57 11 6 0 28 -37
50 -82 21 -46 63 -134 94 -198 31 -63 55 -116 54 -117 -8 -11 -269 -66 -416
-87 -141 -21 -734 -30 -904 -14 -119 11 -249 21 -267 20 -17 -1 -18 79 -18
1539 l0 1539 43 1 c23 0 51 2 62 4 30 5 147 14 265 21 58 4 107 8 109 10 6 5
613 -3 641 -9z m1941 -91 c47 -4 97 -9 110 -11 13 -3 35 -7 49 -10 14 -2 36
-6 50 -9 77 -12 238 -66 345 -114 386 -174 632 -453 620 -703 -1 -30 -5 -65
-10 -79 -13 -45 -86 -253 -120 -345 -30 -81 -123 -342 -240 -670 -107 -300
-161 -451 -265 -740 -61 -170 -118 -330 -127 -355 -24 -71 -31 -79 -86 -104
-29 -13 -97 -45 -152 -71 -204 -96 -681 -320 -795 -373 -30 -13 -97 -45 -149
-69 -52 -24 -95 -42 -96 -41 -1 2 -11 23 -22 48 -12 25 -53 110 -91 190 -83
172 -159 331 -217 455 -24 50 -71 149 -105 220 -34 72 -84 175 -109 230 l-47
100 129 360 c71 198 153 430 184 515 30 85 63 178 74 205 10 28 102 284 204
570 182 508 209 573 257 626 91 100 268 171 443 178 33 1 61 4 64 6 2 3 7 3
10 1 3 -2 45 -6 92 -10z m-2131 -660 c69 -4 136 -8 150 -10 14 -2 50 -7 80
-11 30 -4 62 -8 70 -10 8 -2 35 -8 60 -13 104 -23 170 -45 257 -88 149 -72
235 -170 283 -324 l18 -54 -35 -96 c-20 -52 -41 -113 -49 -135 -7 -22 -71
-202 -142 -400 -126 -351 -130 -360 -163 -377 -26 -13 -129 -43 -179 -53 -3
-1 -25 -5 -50 -10 -25 -5 -47 -9 -50 -10 -3 -1 -32 -5 -65 -9 -33 -4 -71 -10
-85 -12 -14 -2 -80 -7 -147 -10 l-123 -6 0 815 c0 833 0 831 35 821 6 -1 66
-5 135 -8z"/>
<path d="M6476 5833 c-121 -25 -148 -58 -110 -135 43 -86 195 -213 339 -286
220 -110 531 -165 696 -123 125 32 144 65 89 151 -162 252 -694 458 -1014 393z"/>
<path d="M6181 5302 c-8 -20 -28 -77 -46 -127 -31 -86 -166 -464 -225 -630
-16 -44 -67 -186 -113 -315 -47 -129 -103 -287 -126 -351 l-42 -117 72 -151
c40 -83 76 -151 81 -151 4 0 29 15 55 33 86 60 142 77 248 77 120 0 211 -39
297 -125 49 -50 102 -146 113 -206 l7 -37 76 38 c43 20 109 51 149 69 52 25
74 40 81 60 6 14 28 76 50 136 22 61 62 173 90 250 144 401 223 622 226 635 3
8 32 92 66 185 106 293 120 331 120 337 0 3 -42 6 -94 6 -88 1 -153 6 -216 17
-14 3 -41 7 -60 10 -53 9 -199 52 -282 82 -124 46 -306 142 -378 200 -8 6 -42
34 -76 62 l-60 50 -13 -37z"/>
</g>
</svg>
