<?xml version="1.0" encoding="UTF-8"?>
<svg height="512" version="1.1" width="512" xmlns="http://www.w3.org/2000/svg" xmlns:xlink="http://www.w3.org/1999/xlink">
 <path d="M0,0 l512,0 l0,512 l-512,0 Z M0,0" fill="rgb(255,255,255)" transform="matrix(1,0,0,-1,0,512)"/>
 <path d="M61,455 c287,46,403,-21,403,-196 c0,-177,-116,-244,-403,-198 Z M212,321 l0,-126 c71,-5,102,15,102,64 c0,48,-31,68,-102,62 Z M212,321" fill="none" stroke="rgb(76,38,0)" stroke-opacity="0.4" stroke-width="60" transform="matrix(1,0,0,-1,0,512)"/>
 <clipPath id="clip1">
  <path clip-rule="evenodd" d="M61,455 c287,46,403,-21,403,-196 c0,-177,-116,-244,-403,-198 Z M212,321 l0,-126 c71,-5,102,15,102,64 c0,48,-31,68,-102,62 Z M212,321" transform="matrix(1,0,0,-1,0,512)"/>
 </clipPath>
 <g clip-path="url(#clip1)">
  <path d="M226.07,-106.07 c58.58,58.58,58.58,153.55,0,212.13 c-58.58,58.58,-153.55,58.58,-212.13,0.0 c-58.58,-58.58,-58.58,-153.55,-0.0,-212.13 c58.58,-58.58,153.55,-58.58,212.13,-0.0 Z M226.07,-106.07" fill="rgb(255,191,0)" transform="matrix(1,0,0,-1,256,256)"/>
 </g>
 <g clip-path="url(#clip1)">
  <path d="M223.44,-131.02 c58.58,58.58,58.58,153.55,0,212.13 c-58.58,58.58,-153.55,58.58,-212.13,0.0 c-58.58,-58.58,-58.58,-153.55,-0.0,-212.13 c58.58,-58.58,153.55,-58.58,212.13,-0.0 Z M223.44,-131.02" fill="rgb(255,191,0)" transform="matrix(1,0,0,-1,256,256)"/>
 </g>
 <g clip-path="url(#clip1)">
  <path d="M215.69,-154.87 c58.58,58.58,58.58,153.55,0,212.13 c-58.58,58.58,-153.55,58.58,-212.13,0.0 c-58.58,-58.58,-58.58,-153.55,-0.0,-212.13 c58.58,-58.58,153.55,-58.58,212.13,-0.0 Z M215.69,-154.87" fill="rgb(255,191,0)" transform="matrix(1,0,0,-1,256,256)"/>
 </g>
 <g clip-path="url(#clip1)">
  <path d="M203.15,-176.6 c58.58,58.58,58.58,153.55,0,212.13 c-58.58,58.58,-153.55,58.58,-212.13,0.0 c-58.58,-58.58,-58.58,-153.55,-0.0,-212.13 c58.58,-58.58,153.55,-58.58,212.13,0 Z M203.15,-176.6" fill="rgb(255,191,0)" transform="matrix(1,0,0,-1,256,256)"/>
 </g>
 <g clip-path="url(#clip1)">
  <path d="M186.36,-195.24 c58.58,58.58,58.58,153.55,0,212.13 c-58.58,58.58,-153.55,58.58,-212.13,0.0 c-58.58,-58.58,-58.58,-153.55,-0.0,-212.13 c58.58,-58.58,153.55,-58.58,212.13,0 Z M186.36,-195.24" fill="rgb(255,191,0)" transform="matrix(1,0,0,-1,256,256)"/>
 </g>
 <g clip-path="url(#clip1)">
  <path d="M166.07,-209.99 c58.58,58.58,58.58,153.55,0,212.13 c-58.58,58.58,-153.55,58.58,-212.13,0.0 c-58.58,-58.58,-58.58,-153.55,-0.0,-212.13 c58.58,-58.58,153.55,-58.58,212.13,0 Z M166.07,-209.99" fill="rgb(255,190,0)" transform="matrix(1,0,0,-1,256,256)"/>
 </g>
 <g clip-path="url(#clip1)">
  <path d="M143.15,-220.19 c58.58,58.58,58.58,153.55,0,212.13 c-58.58,58.58,-153.55,58.58,-212.13,0.0 c-58.58,-58.58,-58.58,-153.55,-0.0,-212.13 c58.58,-58.58,153.55,-58.58,212.13,0 Z M143.15,-220.19" fill="rgb(255,190,0)" transform="matrix(1,0,0,-1,256,256)"/>
 </g>
 <g clip-path="url(#clip1)">
  <path d="M118.61,-225.41 c58.58,58.58,58.58,153.55,0,212.13 c-58.58,58.58,-153.55,58.58,-212.13,0.0 c-58.58,-58.58,-58.58,-153.55,-0.0,-212.13 c58.58,-58.58,153.55,-58.58,212.13,0 Z M118.61,-225.41" fill="rgb(255,190,0)" transform="matrix(1,0,0,-1,256,256)"/>
 </g>
 <g clip-path="url(#clip1)">
  <path d="M93.52,-225.41 c58.58,58.58,58.58,153.55,0,212.13 c-58.58,58.58,-153.55,58.58,-212.13,0.0 c-58.58,-58.58,-58.58,-153.55,-0.0,-212.13 c58.58,-58.58,153.55,-58.58,212.13,0 Z M93.52,-225.41" fill="rgb(255,190,0)" transform="matrix(1,0,0,-1,256,256)"/>
 </g>
 <g clip-path="url(#clip1)">
  <path d="M68.98,-220.19 c58.58,58.58,58.58,153.55,0,212.13 c-58.58,58.58,-153.55,58.58,-212.13,0.0 c-58.58,-58.58,-58.58,-153.55,0,-212.13 c58.58,-58.58,153.55,-58.58,212.13,0 Z M68.98,-220.19" fill="rgb(255,189,0)" transform="matrix(1,0,0,-1,256,256)"/>
 </g>
 <g clip-path="url(#clip1)">
  <path d="M46.07,-209.99 c58.58,58.58,58.58,153.55,0,212.13 c-58.58,58.58,-153.55,58.58,-212.13,0.0 c-58.58,-58.58,-58.58,-153.55,0,-212.13 c58.58,-58.58,153.55,-58.58,212.13,0 Z M46.07,-209.99" fill="rgb(255,188,0)" transform="matrix(1,0,0,-1,256,256)"/>
 </g>
 <g clip-path="url(#clip1)">
  <path d="M25.77,-195.24 c58.58,58.58,58.58,153.55,0,212.13 c-58.58,58.58,-153.55,58.58,-212.13,0.0 c-58.58,-58.58,-58.58,-153.55,-0.0,-212.13 c58.58,-58.58,153.55,-58.58,212.13,-0.0 Z M25.77,-195.24" fill="rgb(255,188,0)" transform="matrix(1,0,0,-1,256,256)"/>
 </g>
 <g clip-path="url(#clip1)">
  <path d="M8.98,-176.6 c58.58,58.58,58.58,153.55,0,212.13 c-58.58,58.58,-153.55,58.58,-212.13,0.0 c-58.58,-58.58,-58.58,-153.55,0,-212.13 c58.58,-58.58,153.55,-58.58,212.13,0 Z M8.98,-176.6" fill="rgb(255,187,0)" transform="matrix(1,0,0,-1,256,256)"/>
 </g>
 <g clip-path="url(#clip1)">
  <path d="M-3.56,-154.87 c58.58,58.58,58.58,153.55,0,212.13 c-58.58,58.58,-153.55,58.58,-212.13,0.0 c-58.58,-58.58,-58.58,-153.55,0,-212.13 c58.58,-58.58,153.55,-58.58,212.13,0 Z M-3.56,-154.87" fill="rgb(255,186,0)" transform="matrix(1,0,0,-1,256,256)"/>
 </g>
 <g clip-path="url(#clip1)">
  <path d="M-11.31,-131.02 c58.58,58.58,58.58,153.55,0,212.13 c-58.58,58.58,-153.55,58.58,-212.13,0.0 c-58.58,-58.58,-58.58,-153.55,0,-212.13 c58.58,-58.58,153.55,-58.58,212.13,-0.0 Z M-11.31,-131.02" fill="rgb(255,184,0)" transform="matrix(1,0,0,-1,256,256)"/>
 </g>
 <g clip-path="url(#clip1)">
  <path d="M-13.93,-106.07 c58.58,58.58,58.58,153.55,0,212.13 c-58.58,58.58,-153.55,58.58,-212.13,0.0 c-58.58,-58.58,-58.58,-153.55,0,-212.13 c58.58,-58.58,153.55,-58.58,212.13,-0.0 Z M-13.93,-106.07" fill="rgb(255,183,0)" transform="matrix(1,0,0,-1,256,256)"/>
 </g>
 <g clip-path="url(#clip1)">
  <path d="M-11.31,-81.12 c58.58,58.58,58.58,153.55,0,212.13 c-58.58,58.58,-153.55,58.58,-212.13,0.0 c-58.58,-58.58,-58.58,-153.55,0,-212.13 c58.58,-58.58,153.55,-58.58,212.13,-0.0 Z M-11.31,-81.12" fill="rgb(255,181,0)" transform="matrix(1,0,0,-1,256,256)"/>
 </g>
 <g clip-path="url(#clip1)">
  <path d="M-3.56,-57.26 c58.58,58.58,58.58,153.55,0,212.13 c-58.58,58.58,-153.55,58.58,-212.13,0.0 c-58.58,-58.58,-58.58,-153.55,0,-212.13 c58.58,-58.58,153.55,-58.58,212.13,-0.0 Z M-3.56,-57.26" fill="rgb(255,179,0)" transform="matrix(1,0,0,-1,256,256)"/>
 </g>
 <g clip-path="url(#clip1)">
  <path d="M8.98,-35.53 c58.58,58.58,58.58,153.55,0,212.13 c-58.58,58.58,-153.55,58.58,-212.13,0.0 c-58.58,-58.58,-58.58,-153.55,-0.0,-212.13 c58.58,-58.58,153.55,-58.58,212.13,-0.0 Z M8.98,-35.53" fill="rgb(255,177,0)" transform="matrix(1,0,0,-1,256,256)"/>
 </g>
 <g clip-path="url(#clip1)">
  <path d="M25.77,-16.89 c58.58,58.58,58.58,153.55,0,212.13 c-58.58,58.58,-153.55,58.58,-212.13,0.0 c-58.58,-58.58,-58.58,-153.55,-0.0,-212.13 c58.58,-58.58,153.55,-58.58,212.13,-0.0 Z M25.77,-16.89" fill="rgb(255,175,0)" transform="matrix(1,0,0,-1,256,256)"/>
 </g>
 <g clip-path="url(#clip1)">
  <path d="M46.07,-2.14 c58.58,58.58,58.58,153.55,0,212.13 c-58.58,58.58,-153.55,58.58,-212.13,0.0 c-58.58,-58.58,-58.58,-153.55,0,-212.13 c58.58,-58.58,153.55,-58.58,212.13,-0.0 Z M46.07,-2.14" fill="rgb(255,172,0)" transform="matrix(1,0,0,-1,256,256)"/>
 </g>
 <g clip-path="url(#clip1)">
  <path d="M68.98,8.06 c58.58,58.58,58.58,153.55,0,212.13 c-58.58,58.58,-153.55,58.58,-212.13,0.0 c-58.58,-58.58,-58.58,-153.55,0,-212.13 c58.58,-58.58,153.55,-58.58,212.13,-0.0 Z M68.98,8.06" fill="rgb(255,169,0)" transform="matrix(1,0,0,-1,256,256)"/>
 </g>
 <g clip-path="url(#clip1)">
  <path d="M93.52,13.28 c58.58,58.58,58.58,153.55,0,212.13 c-58.58,58.58,-153.55,58.58,-212.13,0.0 c-58.58,-58.58,-58.58,-153.55,-0.0,-212.13 c58.58,-58.58,153.55,-58.58,212.13,-0.0 Z M93.52,13.28" fill="rgb(255,166,0)" transform="matrix(1,0,0,-1,256,256)"/>
 </g>
 <g clip-path="url(#clip1)">
  <path d="M118.61,13.28 c58.58,58.58,58.58,153.55,0,212.13 c-58.58,58.58,-153.55,58.58,-212.13,0.0 c-58.58,-58.58,-58.58,-153.55,-0.0,-212.13 c58.58,-58.58,153.55,-58.58,212.13,-0.0 Z M118.61,13.28" fill="rgb(255,162,0)" transform="matrix(1,0,0,-1,256,256)"/>
 </g>
 <g clip-path="url(#clip1)">
  <path d="M143.15,8.06 c58.58,58.58,58.58,153.55,0,212.13 c-58.58,58.58,-153.55,58.58,-212.13,0 c-58.58,-58.58,-58.58,-153.55,-0.0,-212.13 c58.58,-58.58,153.55,-58.58,212.13,-0.0 Z M143.15,8.06" fill="rgb(255,158,0)" transform="matrix(1,0,0,-1,256,256)"/>
 </g>
 <g clip-path="url(#clip1)">
  <path d="M166.07,-2.14 c58.58,58.58,58.58,153.55,0,212.13 c-58.58,58.58,-153.55,58.58,-212.13,0.0 c-58.58,-58.58,-58.58,-153.55,-0.0,-212.13 c58.58,-58.58,153.55,-58.58,212.13,-0.0 Z M166.07,-2.14" fill="rgb(255,154,0)" transform="matrix(1,0,0,-1,256,256)"/>
 </g>
 <g clip-path="url(#clip1)">
  <path d="M186.36,-16.89 c58.58,58.58,58.58,153.55,0,212.13 c-58.58,58.58,-153.55,58.58,-212.13,0 c-58.58,-58.58,-58.58,-153.55,-0.0,-212.13 c58.58,-58.58,153.55,-58.58,212.13,-0.0 Z M186.36,-16.89" fill="rgb(255,149,0)" transform="matrix(1,0,0,-1,256,256)"/>
 </g>
 <g clip-path="url(#clip1)">
  <path d="M203.15,-35.53 c58.58,58.58,58.58,153.55,0,212.13 c-58.58,58.58,-153.55,58.58,-212.13,0.0 c-58.58,-58.58,-58.58,-153.55,-0.0,-212.13 c58.58,-58.58,153.55,-58.58,212.13,-0.0 Z M203.15,-35.53" fill="rgb(255,144,0)" transform="matrix(1,0,0,-1,256,256)"/>
 </g>
 <g clip-path="url(#clip1)">
  <path d="M215.69,-57.26 c58.58,58.58,58.58,153.55,0,212.13 c-58.58,58.58,-153.55,58.58,-212.13,0.0 c-58.58,-58.58,-58.58,-153.55,-0.0,-212.13 c58.58,-58.58,153.55,-58.58,212.13,-0.0 Z M215.69,-57.26" fill="rgb(255,139,0)" transform="matrix(1,0,0,-1,256,256)"/>
 </g>
 <g clip-path="url(#clip1)">
  <path d="M223.44,-81.12 c58.58,58.58,58.58,153.55,0,212.13 c-58.58,58.58,-153.55,58.58,-212.13,0.0 c-58.58,-58.58,-58.58,-153.55,-0.0,-212.13 c58.58,-58.58,153.55,-58.58,212.13,-0.0 Z M223.44,-81.12" fill="rgb(255,133,0)" transform="matrix(1,0,0,-1,256,256)"/>
 </g>
 <clipPath id="clip2">
  <path clip-rule="evenodd" d="M61,455 c287,46,403,-21,403,-196 c0,-177,-116,-244,-403,-198 Z M212,321 l0,-126 c71,-5,102,15,102,64 c0,48,-31,68,-102,62 Z M212,321" transform="matrix(1,0,0,-1,0,512)"/>
 </clipPath>
 <g clip-path="url(#clip2)">
  <path d="M20.65,-20.65 c11.4,11.4,11.4,29.89,0,41.3 c-11.4,11.4,-29.89,11.4,-41.3,0 c-11.4,-11.4,-11.4,-29.89,-0.0,-41.3 c11.4,-11.4,29.89,-11.4,41.3,-0.0 Z M20.65,-20.65" fill="rgb(255,255,255)" fill-opacity="0.32868526906390605" stroke="rgb(255,255,255)" stroke-width="3.29" transform="matrix(1,0,0,-1,29,284)"/>
 </g>
 <clipPath id="clip3">
  <path clip-rule="evenodd" d="M61,455 c287,46,403,-21,403,-196 c0,-177,-116,-244,-403,-198 Z M212,321 l0,-126 c71,-5,102,15,102,64 c0,48,-31,68,-102,62 Z M212,321" transform="matrix(1,0,0,-1,0,512)"/>
 </clipPath>
 <clipPath id="clip4">
  <path clip-rule="evenodd" d="M61,455 c287,46,403,-21,403,-196 c0,-177,-116,-244,-403,-198 Z M212,321 l0,-126 c71,-5,102,15,102,64 c0,48,-31,68,-102,62 Z M212,321" transform="matrix(1,0,0,-1,0,512)"/>
 </clipPath>
 <clipPath id="clip5">
  <path clip-rule="evenodd" d="M61,455 c287,46,403,-21,403,-196 c0,-177,-116,-244,-403,-198 Z M212,321 l0,-126 c71,-5,102,15,102,64 c0,48,-31,68,-102,62 Z M212,321" transform="matrix(1,0,0,-1,0,512)"/>
 </clipPath>
 <clipPath id="clip6">
  <path clip-rule="evenodd" d="M61,455 c287,46,403,-21,403,-196 c0,-177,-116,-244,-403,-198 Z M212,321 l0,-126 c71,-5,102,15,102,64 c0,48,-31,68,-102,62 Z M212,321" transform="matrix(1,0,0,-1,0,512)"/>
 </clipPath>
 <g clip-path="url(#clip6)">
  <path d="M27.15,-27.15 c14.99,14.99,14.99,39.3,0,54.29 c-14.99,14.99,-39.3,14.99,-54.29,0.0 c-14.99,-14.99,-14.99,-39.3,-0.0,-54.29 c14.99,-14.99,39.3,-14.99,54.29,-0.0 Z M27.15,-27.15" fill="rgb(255,255,255)" fill-opacity="0.07489875020103898" stroke="rgb(255,255,255)" stroke-width="0.75" transform="matrix(1,0,0,-1,61,437)"/>
 </g>
 <clipPath id="clip7">
  <path clip-rule="evenodd" d="M61,455 c287,46,403,-21,403,-196 c0,-177,-116,-244,-403,-198 Z M212,321 l0,-126 c71,-5,102,15,102,64 c0,48,-31,68,-102,62 Z M212,321" transform="matrix(1,0,0,-1,0,512)"/>
 </clipPath>
 <clipPath id="clip8">
  <path clip-rule="evenodd" d="M61,455 c287,46,403,-21,403,-196 c0,-177,-116,-244,-403,-198 Z M212,321 l0,-126 c71,-5,102,15,102,64 c0,48,-31,68,-102,62 Z M212,321" transform="matrix(1,0,0,-1,0,512)"/>
 </clipPath>
 <clipPath id="clip9">
  <path clip-rule="evenodd" d="M61,455 c287,46,403,-21,403,-196 c0,-177,-116,-244,-403,-198 Z M212,321 l0,-126 c71,-5,102,15,102,64 c0,48,-31,68,-102,62 Z M212,321" transform="matrix(1,0,0,-1,0,512)"/>
 </clipPath>
 <clipPath id="clip10">
  <path clip-rule="evenodd" d="M61,455 c287,46,403,-21,403,-196 c0,-177,-116,-244,-403,-198 Z M212,321 l0,-126 c71,-5,102,15,102,64 c0,48,-31,68,-102,62 Z M212,321" transform="matrix(1,0,0,-1,0,512)"/>
 </clipPath>
 <g clip-path="url(#clip10)">
  <path d="M16.66,-16.66 c9.2,9.2,9.2,24.11,0,33.31 c-9.2,9.2,-24.11,9.2,-33.31,0 c-9.2,-9.2,-9.2,-24.11,-0.0,-33.31 c9.2,-9.2,24.11,-9.2,33.31,-0.0 Z M16.66,-16.66" fill="rgb(255,255,255)" fill-opacity="0.2276881276811098" stroke="rgb(255,255,255)" stroke-width="2.28" transform="matrix(1,0,0,-1,287,266)"/>
 </g>
 <clipPath id="clip11">
  <path clip-rule="evenodd" d="M61,455 c287,46,403,-21,403,-196 c0,-177,-116,-244,-403,-198 Z M212,321 l0,-126 c71,-5,102,15,102,64 c0,48,-31,68,-102,62 Z M212,321" transform="matrix(1,0,0,-1,0,512)"/>
 </clipPath>
 <clipPath id="clip12">
  <path clip-rule="evenodd" d="M61,455 c287,46,403,-21,403,-196 c0,-177,-116,-244,-403,-198 Z M212,321 l0,-126 c71,-5,102,15,102,64 c0,48,-31,68,-102,62 Z M212,321" transform="matrix(1,0,0,-1,0,512)"/>
 </clipPath>
 <clipPath id="clip13">
  <path clip-rule="evenodd" d="M61,455 c287,46,403,-21,403,-196 c0,-177,-116,-244,-403,-198 Z M212,321 l0,-126 c71,-5,102,15,102,64 c0,48,-31,68,-102,62 Z M212,321" transform="matrix(1,0,0,-1,0,512)"/>
 </clipPath>
 <clipPath id="clip14">
  <path clip-rule="evenodd" d="M61,455 c287,46,403,-21,403,-196 c0,-177,-116,-244,-403,-198 Z M212,321 l0,-126 c71,-5,102,15,102,64 c0,48,-31,68,-102,62 Z M212,321" transform="matrix(1,0,0,-1,0,512)"/>
 </clipPath>
 <clipPath id="clip15">
  <path clip-rule="evenodd" d="M61,455 c287,46,403,-21,403,-196 c0,-177,-116,-244,-403,-198 Z M212,321 l0,-126 c71,-5,102,15,102,64 c0,48,-31,68,-102,62 Z M212,321" transform="matrix(1,0,0,-1,0,512)"/>
 </clipPath>
 <clipPath id="clip16">
  <path clip-rule="evenodd" d="M61,455 c287,46,403,-21,403,-196 c0,-177,-116,-244,-403,-198 Z M212,321 l0,-126 c71,-5,102,15,102,64 c0,48,-31,68,-102,62 Z M212,321" transform="matrix(1,0,0,-1,0,512)"/>
 </clipPath>
 <clipPath id="clip17">
  <path clip-rule="evenodd" d="M61,455 c287,46,403,-21,403,-196 c0,-177,-116,-244,-403,-198 Z M212,321 l0,-126 c71,-5,102,15,102,64 c0,48,-31,68,-102,62 Z M212,321" transform="matrix(1,0,0,-1,0,512)"/>
 </clipPath>
 <clipPath id="clip18">
  <path clip-rule="evenodd" d="M61,455 c287,46,403,-21,403,-196 c0,-177,-116,-244,-403,-198 Z M212,321 l0,-126 c71,-5,102,15,102,64 c0,48,-31,68,-102,62 Z M212,321" transform="matrix(1,0,0,-1,0,512)"/>
 </clipPath>
 <g clip-path="url(#clip18)">
  <path d="M15.63,-15.63 c8.63,8.63,8.63,22.63,0,31.26 c-8.63,8.63,-22.63,8.63,-31.26,0.0 c-8.63,-8.63,-8.63,-22.63,-0.0,-31.26 c8.63,-8.63,22.63,-8.63,31.26,-0.0 Z M15.63,-15.63" fill="rgb(255,255,255)" fill-opacity="0.29832139524170764" stroke="rgb(255,255,255)" stroke-width="2.98" transform="matrix(1,0,0,-1,17,337)"/>
 </g>
 <clipPath id="clip19">
  <path clip-rule="evenodd" d="M61,455 c287,46,403,-21,403,-196 c0,-177,-116,-244,-403,-198 Z M212,321 l0,-126 c71,-5,102,15,102,64 c0,48,-31,68,-102,62 Z M212,321" transform="matrix(1,0,0,-1,0,512)"/>
 </clipPath>
 <clipPath id="clip20">
  <path clip-rule="evenodd" d="M61,455 c287,46,403,-21,403,-196 c0,-177,-116,-244,-403,-198 Z M212,321 l0,-126 c71,-5,102,15,102,64 c0,48,-31,68,-102,62 Z M212,321" transform="matrix(1,0,0,-1,0,512)"/>
 </clipPath>
 <clipPath id="clip21">
  <path clip-rule="evenodd" d="M61,455 c287,46,403,-21,403,-196 c0,-177,-116,-244,-403,-198 Z M212,321 l0,-126 c71,-5,102,15,102,64 c0,48,-31,68,-102,62 Z M212,321" transform="matrix(1,0,0,-1,0,512)"/>
 </clipPath>
 <clipPath id="clip22">
  <path clip-rule="evenodd" d="M61,455 c287,46,403,-21,403,-196 c0,-177,-116,-244,-403,-198 Z M212,321 l0,-126 c71,-5,102,15,102,64 c0,48,-31,68,-102,62 Z M212,321" transform="matrix(1,0,0,-1,0,512)"/>
 </clipPath>
 <g clip-path="url(#clip22)">
  <path d="M6.45,-6.45 c3.56,3.56,3.56,9.33,0,12.89 c-3.56,3.56,-9.33,3.56,-12.89,0.0 c-3.56,-3.56,-3.56,-9.33,-0.0,-12.89 c3.56,-3.56,9.33,-3.56,12.89,-0.0 Z M6.45,-6.45" fill="rgb(255,255,255)" fill-opacity="0.7395320587408427" stroke="rgb(255,255,255)" stroke-width="7.4" transform="matrix(1,0,0,-1,310,76)"/>
 </g>
 <clipPath id="clip23">
  <path clip-rule="evenodd" d="M61,455 c287,46,403,-21,403,-196 c0,-177,-116,-244,-403,-198 Z M212,321 l0,-126 c71,-5,102,15,102,64 c0,48,-31,68,-102,62 Z M212,321" transform="matrix(1,0,0,-1,0,512)"/>
 </clipPath>
 <g clip-path="url(#clip23)">
  <path d="M12.73,-12.73 c7.03,7.03,7.03,18.43,0,25.46 c-7.03,7.03,-18.43,7.03,-25.46,0.0 c-7.03,-7.03,-7.03,-18.43,-0.0,-25.46 c7.03,-7.03,18.43,-7.03,25.46,-0.0 Z M12.73,-12.73" fill="rgb(255,255,255)" fill-opacity="0.3332607137340238" stroke="rgb(255,255,255)" stroke-width="3.33" transform="matrix(1,0,0,-1,345,138)"/>
 </g>
 <clipPath id="clip24">
  <path clip-rule="evenodd" d="M61,455 c287,46,403,-21,403,-196 c0,-177,-116,-244,-403,-198 Z M212,321 l0,-126 c71,-5,102,15,102,64 c0,48,-31,68,-102,62 Z M212,321" transform="matrix(1,0,0,-1,0,512)"/>
 </clipPath>
 <g clip-path="url(#clip24)">
  <path d="M27.34,-27.34 c15.1,15.1,15.1,39.58,0,54.68 c-15.1,15.1,-39.58,15.1,-54.68,0.0 c-15.1,-15.1,-15.1,-39.58,-0.0,-54.68 c15.1,-15.1,39.58,-15.1,54.68,-0.0 Z M27.34,-27.34" fill="rgb(255,255,255)" fill-opacity="0.1408105338136827" stroke="rgb(255,255,255)" stroke-width="1.41" transform="matrix(1,0,0,-1,462,353)"/>
 </g>
 <clipPath id="clip25">
  <path clip-rule="evenodd" d="M61,455 c287,46,403,-21,403,-196 c0,-177,-116,-244,-403,-198 Z M212,321 l0,-126 c71,-5,102,15,102,64 c0,48,-31,68,-102,62 Z M212,321" transform="matrix(1,0,0,-1,0,512)"/>
 </clipPath>
 <g clip-path="url(#clip25)">
  <path d="M23.42,-23.42 c12.94,12.94,12.94,33.91,0,46.85 c-12.94,12.94,-33.91,12.94,-46.85,0.0 c-12.94,-12.94,-12.94,-33.91,-0.0,-46.85 c12.94,-12.94,33.91,-12.94,46.85,-0.0 Z M23.42,-23.42" fill="rgb(255,255,255)" fill-opacity="0.2951652776095065" stroke="rgb(255,255,255)" stroke-width="2.95" transform="matrix(1,0,0,-1,34,383)"/>
 </g>
 <clipPath id="clip26">
  <path clip-rule="evenodd" d="M61,455 c287,46,403,-21,403,-196 c0,-177,-116,-244,-403,-198 Z M212,321 l0,-126 c71,-5,102,15,102,64 c0,48,-31,68,-102,62 Z M212,321" transform="matrix(1,0,0,-1,0,512)"/>
 </clipPath>
 <clipPath id="clip27">
  <path clip-rule="evenodd" d="M61,455 c287,46,403,-21,403,-196 c0,-177,-116,-244,-403,-198 Z M212,321 l0,-126 c71,-5,102,15,102,64 c0,48,-31,68,-102,62 Z M212,321" transform="matrix(1,0,0,-1,0,512)"/>
 </clipPath>
 <clipPath id="clip28">
  <path clip-rule="evenodd" d="M61,455 c287,46,403,-21,403,-196 c0,-177,-116,-244,-403,-198 Z M212,321 l0,-126 c71,-5,102,15,102,64 c0,48,-31,68,-102,62 Z M212,321" transform="matrix(1,0,0,-1,0,512)"/>
 </clipPath>
 <g clip-path="url(#clip28)">
  <path d="M8.05,-8.05 c4.45,4.45,4.45,11.66,0,16.1 c-4.45,4.45,-11.66,4.45,-16.1,0.0 c-4.45,-4.45,-4.45,-11.66,-0.0,-16.1 c4.45,-4.45,11.66,-4.45,16.1,-0.0 Z M8.05,-8.05" fill="rgb(255,255,255)" fill-opacity="0.6204869195552192" stroke="rgb(255,255,255)" stroke-width="6.2" transform="matrix(1,0,0,-1,27,495)"/>
 </g>
 <clipPath id="clip29">
  <path clip-rule="evenodd" d="M61,455 c287,46,403,-21,403,-196 c0,-177,-116,-244,-403,-198 Z M212,321 l0,-126 c71,-5,102,15,102,64 c0,48,-31,68,-102,62 Z M212,321" transform="matrix(1,0,0,-1,0,512)"/>
 </clipPath>
 <clipPath id="clip30">
  <path clip-rule="evenodd" d="M61,455 c287,46,403,-21,403,-196 c0,-177,-116,-244,-403,-198 Z M212,321 l0,-126 c71,-5,102,15,102,64 c0,48,-31,68,-102,62 Z M212,321" transform="matrix(1,0,0,-1,0,512)"/>
 </clipPath>
 <clipPath id="clip31">
  <path clip-rule="evenodd" d="M61,455 c287,46,403,-21,403,-196 c0,-177,-116,-244,-403,-198 Z M212,321 l0,-126 c71,-5,102,15,102,64 c0,48,-31,68,-102,62 Z M212,321" transform="matrix(1,0,0,-1,0,512)"/>
 </clipPath>
 <clipPath id="clip32">
  <path clip-rule="evenodd" d="M61,455 c287,46,403,-21,403,-196 c0,-177,-116,-244,-403,-198 Z M212,321 l0,-126 c71,-5,102,15,102,64 c0,48,-31,68,-102,62 Z M212,321" transform="matrix(1,0,0,-1,0,512)"/>
 </clipPath>
 <g clip-path="url(#clip32)">
  <path d="M1.24,-1.24 c0.68,0.68,0.68,1.8,0,2.48 c-0.68,0.68,-1.8,0.68,-2.48,0.0 c-0.68,-0.68,-0.68,-1.8,-0.0,-2.48 c0.68,-0.68,1.8,-0.68,2.48,-0.0 Z M1.24,-1.24" fill="rgb(255,255,255)" fill-opacity="0.9596798403231059" stroke="rgb(255,255,255)" stroke-width="9.6" transform="matrix(1,0,0,-1,412,130)"/>
 </g>
 <clipPath id="clip33">
  <path clip-rule="evenodd" d="M61,455 c287,46,403,-21,403,-196 c0,-177,-116,-244,-403,-198 Z M212,321 l0,-126 c71,-5,102,15,102,64 c0,48,-31,68,-102,62 Z M212,321" transform="matrix(1,0,0,-1,0,512)"/>
 </clipPath>
 <g clip-path="url(#clip33)">
  <path d="M1.19,-1.19 c0.66,0.66,0.66,1.72,0,2.37 c-0.66,0.66,-1.72,0.66,-2.37,0.0 c-0.66,-0.66,-0.66,-1.72,-0.0,-2.37 c0.66,-0.66,1.72,-0.66,2.37,-0.0 Z M1.19,-1.19" fill="rgb(255,255,255)" fill-opacity="0.9420969549433472" stroke="rgb(255,255,255)" stroke-width="9.42" transform="matrix(1,0,0,-1,349,228)"/>
 </g>
 <clipPath id="clip34">
  <path clip-rule="evenodd" d="M61,455 c287,46,403,-21,403,-196 c0,-177,-116,-244,-403,-198 Z M212,321 l0,-126 c71,-5,102,15,102,64 c0,48,-31,68,-102,62 Z M212,321" transform="matrix(1,0,0,-1,0,512)"/>
 </clipPath>
 <g clip-path="url(#clip34)">
  <path d="M23.55,-23.55 c13.01,13.01,13.01,34.1,0,47.11 c-13.01,13.01,-34.1,13.01,-47.11,0.0 c-13.01,-13.01,-13.01,-34.1,-0.0,-47.11 c13.01,-13.01,34.1,-13.01,47.11,-0.0 Z M23.55,-23.55" fill="rgb(255,255,255)" fill-opacity="0.17756000740746336" stroke="rgb(255,255,255)" stroke-width="1.78" transform="matrix(1,0,0,-1,225,371)"/>
 </g>
 <clipPath id="clip35">
  <path clip-rule="evenodd" d="M61,455 c287,46,403,-21,403,-196 c0,-177,-116,-244,-403,-198 Z M212,321 l0,-126 c71,-5,102,15,102,64 c0,48,-31,68,-102,62 Z M212,321" transform="matrix(1,0,0,-1,0,512)"/>
 </clipPath>
 <g clip-path="url(#clip35)">
  <path d="M3.67,-3.67 c2.03,2.03,2.03,5.31,0,7.34 c-2.03,2.03,-5.31,2.03,-7.34,0.0 c-2.03,-2.03,-2.03,-5.31,-0.0,-7.34 c2.03,-2.03,5.31,-2.03,7.34,-0.0 Z M3.67,-3.67" fill="rgb(255,255,255)" fill-opacity="0.8596862243679467" stroke="rgb(255,255,255)" stroke-width="8.6" transform="matrix(1,0,0,-1,410,478)"/>
 </g>
 <clipPath id="clip36">
  <path clip-rule="evenodd" d="M61,455 c287,46,403,-21,403,-196 c0,-177,-116,-244,-403,-198 Z M212,321 l0,-126 c71,-5,102,15,102,64 c0,48,-31,68,-102,62 Z M212,321" transform="matrix(1,0,0,-1,0,512)"/>
 </clipPath>
 <g clip-path="url(#clip36)">
  <path d="M19.23,-19.23 c10.62,10.62,10.62,27.84,0,38.46 c-10.62,10.62,-27.84,10.62,-38.46,0.0 c-10.62,-10.62,-10.62,-27.84,-0.0,-38.46 c10.62,-10.62,27.84,-10.62,38.46,-0.0 Z M19.23,-19.23" fill="rgb(255,255,255)" fill-opacity="0.1366207094402565" stroke="rgb(255,255,255)" stroke-width="1.37" transform="matrix(1,0,0,-1,151,297)"/>
 </g>
 <clipPath id="clip37">
  <path clip-rule="evenodd" d="M61,455 c287,46,403,-21,403,-196 c0,-177,-116,-244,-403,-198 Z M212,321 l0,-126 c71,-5,102,15,102,64 c0,48,-31,68,-102,62 Z M212,321" transform="matrix(1,0,0,-1,0,512)"/>
 </clipPath>
 <g clip-path="url(#clip37)">
  <path d="M10.94,-10.94 c6.04,6.04,6.04,15.84,0,21.88 c-6.04,6.04,-15.84,6.04,-21.88,0.0 c-6.04,-6.04,-6.04,-15.84,-0.0,-21.88 c6.04,-6.04,15.84,-6.04,21.88,-0.0 Z M10.94,-10.94" fill="rgb(255,255,255)" fill-opacity="0.032851173923942656" stroke="rgb(255,255,255)" stroke-width="0.33" transform="matrix(1,0,0,-1,356,105)"/>
 </g>
 <clipPath id="clip38">
  <path clip-rule="evenodd" d="M61,455 c287,46,403,-21,403,-196 c0,-177,-116,-244,-403,-198 Z M212,321 l0,-126 c71,-5,102,15,102,64 c0,48,-31,68,-102,62 Z M212,321" transform="matrix(1,0,0,-1,0,512)"/>
 </clipPath>
 <clipPath id="clip39">
  <path clip-rule="evenodd" d="M61,455 c287,46,403,-21,403,-196 c0,-177,-116,-244,-403,-198 Z M212,321 l0,-126 c71,-5,102,15,102,64 c0,48,-31,68,-102,62 Z M212,321" transform="matrix(1,0,0,-1,0,512)"/>
 </clipPath>
 <clipPath id="clip40">
  <path clip-rule="evenodd" d="M61,455 c287,46,403,-21,403,-196 c0,-177,-116,-244,-403,-198 Z M212,321 l0,-126 c71,-5,102,15,102,64 c0,48,-31,68,-102,62 Z M212,321" transform="matrix(1,0,0,-1,0,512)"/>
 </clipPath>
 <clipPath id="clip41">
  <path clip-rule="evenodd" d="M61,455 c287,46,403,-21,403,-196 c0,-177,-116,-244,-403,-198 Z M212,321 l0,-126 c71,-5,102,15,102,64 c0,48,-31,68,-102,62 Z M212,321" transform="matrix(1,0,0,-1,0,512)"/>
 </clipPath>
 <clipPath id="clip42">
  <path clip-rule="evenodd" d="M61,455 c287,46,403,-21,403,-196 c0,-177,-116,-244,-403,-198 Z M212,321 l0,-126 c71,-5,102,15,102,64 c0,48,-31,68,-102,62 Z M212,321" transform="matrix(1,0,0,-1,0,512)"/>
 </clipPath>
 <g clip-path="url(#clip42)">
  <path d="M6.33,-6.33 c3.5,3.5,3.5,9.16,0,12.66 c-3.5,3.5,-9.16,3.5,-12.66,0.0 c-3.5,-3.5,-3.5,-9.16,-0.0,-12.66 c3.5,-3.5,9.16,-3.5,12.66,-0.0 Z M6.33,-6.33" fill="rgb(255,255,255)" fill-opacity="0.6621706900375894" stroke="rgb(255,255,255)" stroke-width="6.62" transform="matrix(1,0,0,-1,442,230)"/>
 </g>
 <clipPath id="clip43">
  <path clip-rule="evenodd" d="M61,455 c287,46,403,-21,403,-196 c0,-177,-116,-244,-403,-198 Z M212,321 l0,-126 c71,-5,102,15,102,64 c0,48,-31,68,-102,62 Z M212,321" transform="matrix(1,0,0,-1,0,512)"/>
 </clipPath>
 <g clip-path="url(#clip43)">
  <path d="M22.34,-22.34 c12.34,12.34,12.34,32.34,0,44.67 c-12.34,12.34,-32.34,12.34,-44.67,0.0 c-12.34,-12.34,-12.34,-32.34,-0.0,-44.67 c12.34,-12.34,32.34,-12.34,44.67,-0.0 Z M22.34,-22.34" fill="rgb(255,255,255)" fill-opacity="0.028012667373365052" stroke="rgb(255,255,255)" stroke-width="0.28" transform="matrix(1,0,0,-1,423,255)"/>
 </g>
 <clipPath id="clip44">
  <path clip-rule="evenodd" d="M61,455 c287,46,403,-21,403,-196 c0,-177,-116,-244,-403,-198 Z M212,321 l0,-126 c71,-5,102,15,102,64 c0,48,-31,68,-102,62 Z M212,321" transform="matrix(1,0,0,-1,0,512)"/>
 </clipPath>
 <g clip-path="url(#clip44)">
  <path d="M18.23,-18.23 c10.07,10.07,10.07,26.4,0,36.47 c-10.07,10.07,-26.4,10.07,-36.47,0.0 c-10.07,-10.07,-10.07,-26.4,-0.0,-36.47 c10.07,-10.07,26.4,-10.07,36.47,-0.0 Z M18.23,-18.23" fill="rgb(255,255,255)" fill-opacity="0.18138207765815095" stroke="rgb(255,255,255)" stroke-width="1.81" transform="matrix(1,0,0,-1,459,473)"/>
 </g>
 <clipPath id="clip45">
  <path clip-rule="evenodd" d="M61,455 c287,46,403,-21,403,-196 c0,-177,-116,-244,-403,-198 Z M212,321 l0,-126 c71,-5,102,15,102,64 c0,48,-31,68,-102,62 Z M212,321" transform="matrix(1,0,0,-1,0,512)"/>
 </clipPath>
 <g clip-path="url(#clip45)">
  <path d="M12.01,-12.01 c6.63,6.63,6.63,17.39,0,24.03 c-6.63,6.63,-17.39,6.63,-24.03,0.0 c-6.63,-6.63,-6.63,-17.39,-0.0,-24.03 c6.63,-6.63,17.39,-6.63,24.03,-0.0 Z M12.01,-12.01" fill="rgb(255,255,255)" fill-opacity="0.2098013467321529" stroke="rgb(255,255,255)" stroke-width="2.1" transform="matrix(1,0,0,-1,206,150)"/>
 </g>
 <clipPath id="clip46">
  <path clip-rule="evenodd" d="M61,455 c287,46,403,-21,403,-196 c0,-177,-116,-244,-403,-198 Z M212,321 l0,-126 c71,-5,102,15,102,64 c0,48,-31,68,-102,62 Z M212,321" transform="matrix(1,0,0,-1,0,512)"/>
 </clipPath>
 <clipPath id="clip47">
  <path clip-rule="evenodd" d="M61,455 c287,46,403,-21,403,-196 c0,-177,-116,-244,-403,-198 Z M212,321 l0,-126 c71,-5,102,15,102,64 c0,48,-31,68,-102,62 Z M212,321" transform="matrix(1,0,0,-1,0,512)"/>
 </clipPath>
 <clipPath id="clip48">
  <path clip-rule="evenodd" d="M61,455 c287,46,403,-21,403,-196 c0,-177,-116,-244,-403,-198 Z M212,321 l0,-126 c71,-5,102,15,102,64 c0,48,-31,68,-102,62 Z M212,321" transform="matrix(1,0,0,-1,0,512)"/>
 </clipPath>
 <clipPath id="clip49">
  <path clip-rule="evenodd" d="M61,455 c287,46,403,-21,403,-196 c0,-177,-116,-244,-403,-198 Z M212,321 l0,-126 c71,-5,102,15,102,64 c0,48,-31,68,-102,62 Z M212,321" transform="matrix(1,0,0,-1,0,512)"/>
 </clipPath>
 <clipPath id="clip50">
  <path clip-rule="evenodd" d="M61,455 c287,46,403,-21,403,-196 c0,-177,-116,-244,-403,-198 Z M212,321 l0,-126 c71,-5,102,15,102,64 c0,48,-31,68,-102,62 Z M212,321" transform="matrix(1,0,0,-1,0,512)"/>
 </clipPath>
 <g clip-path="url(#clip50)">
  <path d="M16.29,-16.29 c9.0,9.0,9.0,23.59,0,32.58 c-9.0,9.0,-23.59,9.0,-32.58,0.0 c-9.0,-9.0,-9.0,-23.59,-0.0,-32.58 c9.0,-9.0,23.59,-9.0,32.58,-0.0 Z M16.29,-16.29" fill="rgb(255,255,255)" fill-opacity="0.2319680598248749" stroke="rgb(255,255,255)" stroke-width="2.32" transform="matrix(1,0,0,-1,140,30)"/>
 </g>
 <clipPath id="clip51">
  <path clip-rule="evenodd" d="M61,455 c287,46,403,-21,403,-196 c0,-177,-116,-244,-403,-198 Z M212,321 l0,-126 c71,-5,102,15,102,64 c0,48,-31,68,-102,62 Z M212,321" transform="matrix(1,0,0,-1,0,512)"/>
 </clipPath>
 <clipPath id="clip52">
  <path clip-rule="evenodd" d="M61,455 c287,46,403,-21,403,-196 c0,-177,-116,-244,-403,-198 Z M212,321 l0,-126 c71,-5,102,15,102,64 c0,48,-31,68,-102,62 Z M212,321" transform="matrix(1,0,0,-1,0,512)"/>
 </clipPath>
 <clipPath id="clip53">
  <path clip-rule="evenodd" d="M61,455 c287,46,403,-21,403,-196 c0,-177,-116,-244,-403,-198 Z M212,321 l0,-126 c71,-5,102,15,102,64 c0,48,-31,68,-102,62 Z M212,321" transform="matrix(1,0,0,-1,0,512)"/>
 </clipPath>
 <clipPath id="clip54">
  <path clip-rule="evenodd" d="M61,455 c287,46,403,-21,403,-196 c0,-177,-116,-244,-403,-198 Z M212,321 l0,-126 c71,-5,102,15,102,64 c0,48,-31,68,-102,62 Z M212,321" transform="matrix(1,0,0,-1,0,512)"/>
 </clipPath>
 <clipPath id="clip55">
  <path clip-rule="evenodd" d="M61,455 c287,46,403,-21,403,-196 c0,-177,-116,-244,-403,-198 Z M212,321 l0,-126 c71,-5,102,15,102,64 c0,48,-31,68,-102,62 Z M212,321" transform="matrix(1,0,0,-1,0,512)"/>
 </clipPath>
 <clipPath id="clip56">
  <path clip-rule="evenodd" d="M61,455 c287,46,403,-21,403,-196 c0,-177,-116,-244,-403,-198 Z M212,321 l0,-126 c71,-5,102,15,102,64 c0,48,-31,68,-102,62 Z M212,321" transform="matrix(1,0,0,-1,0,512)"/>
 </clipPath>
 <clipPath id="clip57">
  <path clip-rule="evenodd" d="M61,455 c287,46,403,-21,403,-196 c0,-177,-116,-244,-403,-198 Z M212,321 l0,-126 c71,-5,102,15,102,64 c0,48,-31,68,-102,62 Z M212,321" transform="matrix(1,0,0,-1,0,512)"/>
 </clipPath>
 <clipPath id="clip58">
  <path clip-rule="evenodd" d="M61,455 c287,46,403,-21,403,-196 c0,-177,-116,-244,-403,-198 Z M212,321 l0,-126 c71,-5,102,15,102,64 c0,48,-31,68,-102,62 Z M212,321" transform="matrix(1,0,0,-1,0,512)"/>
 </clipPath>
 <g clip-path="url(#clip58)">
  <path d="M5.16,-5.16 c2.85,2.85,2.85,7.47,0,10.32 c-2.85,2.85,-7.47,2.85,-10.32,0.0 c-2.85,-2.85,-2.85,-7.47,-0.0,-10.32 c2.85,-2.85,7.47,-2.85,10.32,-0.0 Z M5.16,-5.16" fill="rgb(255,255,255)" fill-opacity="0.6441827810365068" stroke="rgb(255,255,255)" stroke-width="6.44" transform="matrix(1,0,0,-1,405,497)"/>
 </g>
 <clipPath id="clip59">
  <path clip-rule="evenodd" d="M61,455 c287,46,403,-21,403,-196 c0,-177,-116,-244,-403,-198 Z M212,321 l0,-126 c71,-5,102,15,102,64 c0,48,-31,68,-102,62 Z M212,321" transform="matrix(1,0,0,-1,0,512)"/>
 </clipPath>
 <g clip-path="url(#clip59)">
  <path d="M12.85,-12.85 c7.1,7.1,7.1,18.6,0,25.7 c-7.1,7.1,-18.6,7.1,-25.7,0.0 c-7.1,-7.1,-7.1,-18.6,-0.0,-25.7 c7.1,-7.1,18.6,-7.1,25.7,-0.0 Z M12.85,-12.85" fill="rgb(255,255,255)" fill-opacity="0.5673332414589388" stroke="rgb(255,255,255)" stroke-width="5.67" transform="matrix(1,0,0,-1,224,1)"/>
 </g>
 <clipPath id="clip60">
  <path clip-rule="evenodd" d="M61,455 c287,46,403,-21,403,-196 c0,-177,-116,-244,-403,-198 Z M212,321 l0,-126 c71,-5,102,15,102,64 c0,48,-31,68,-102,62 Z M212,321" transform="matrix(1,0,0,-1,0,512)"/>
 </clipPath>
 <clipPath id="clip61">
  <path clip-rule="evenodd" d="M61,455 c287,46,403,-21,403,-196 c0,-177,-116,-244,-403,-198 Z M212,321 l0,-126 c71,-5,102,15,102,64 c0,48,-31,68,-102,62 Z M212,321" transform="matrix(1,0,0,-1,0,512)"/>
 </clipPath>
 <g clip-path="url(#clip61)">
  <path d="M2.8,-2.8 c1.55,1.55,1.55,4.05,0,5.6 c-1.55,1.55,-4.05,1.55,-5.6,0.0 c-1.55,-1.55,-1.55,-4.05,-0.0,-5.6 c1.55,-1.55,4.05,-1.55,5.6,-0.0 Z M2.8,-2.8" fill="rgb(255,255,255)" fill-opacity="0.806920939876577" stroke="rgb(255,255,255)" stroke-width="8.07" transform="matrix(1,0,0,-1,502,251)"/>
 </g>
 <clipPath id="clip62">
  <path clip-rule="evenodd" d="M61,455 c287,46,403,-21,403,-196 c0,-177,-116,-244,-403,-198 Z M212,321 l0,-126 c71,-5,102,15,102,64 c0,48,-31,68,-102,62 Z M212,321" transform="matrix(1,0,0,-1,0,512)"/>
 </clipPath>
 <clipPath id="clip63">
  <path clip-rule="evenodd" d="M61,455 c287,46,403,-21,403,-196 c0,-177,-116,-244,-403,-198 Z M212,321 l0,-126 c71,-5,102,15,102,64 c0,48,-31,68,-102,62 Z M212,321" transform="matrix(1,0,0,-1,0,512)"/>
 </clipPath>
 <clipPath id="clip64">
  <path clip-rule="evenodd" d="M61,455 c287,46,403,-21,403,-196 c0,-177,-116,-244,-403,-198 Z M212,321 l0,-126 c71,-5,102,15,102,64 c0,48,-31,68,-102,62 Z M212,321" transform="matrix(1,0,0,-1,0,512)"/>
 </clipPath>
 <clipPath id="clip65">
  <path clip-rule="evenodd" d="M61,455 c287,46,403,-21,403,-196 c0,-177,-116,-244,-403,-198 Z M212,321 l0,-126 c71,-5,102,15,102,64 c0,48,-31,68,-102,62 Z M212,321" transform="matrix(1,0,0,-1,0,512)"/>
 </clipPath>
 <g clip-path="url(#clip65)">
  <path d="M9.04,-9.04 c4.99,4.99,4.99,13.09,0,18.09 c-4.99,4.99,-13.09,4.99,-18.09,0.0 c-4.99,-4.99,-4.99,-13.09,-0.0,-18.09 c4.99,-4.99,13.09,-4.99,18.09,-0.0 Z M9.04,-9.04" fill="rgb(255,255,255)" fill-opacity="0.20072209236508476" stroke="rgb(255,255,255)" stroke-width="2.01" transform="matrix(1,0,0,-1,234,7)"/>
 </g>
 <clipPath id="clip66">
  <path clip-rule="evenodd" d="M61,455 c287,46,403,-21,403,-196 c0,-177,-116,-244,-403,-198 Z M212,321 l0,-126 c71,-5,102,15,102,64 c0,48,-31,68,-102,62 Z M212,321" transform="matrix(1,0,0,-1,0,512)"/>
 </clipPath>
 <clipPath id="clip67">
  <path clip-rule="evenodd" d="M61,455 c287,46,403,-21,403,-196 c0,-177,-116,-244,-403,-198 Z M212,321 l0,-126 c71,-5,102,15,102,64 c0,48,-31,68,-102,62 Z M212,321" transform="matrix(1,0,0,-1,0,512)"/>
 </clipPath>
 <clipPath id="clip68">
  <path clip-rule="evenodd" d="M61,455 c287,46,403,-21,403,-196 c0,-177,-116,-244,-403,-198 Z M212,321 l0,-126 c71,-5,102,15,102,64 c0,48,-31,68,-102,62 Z M212,321" transform="matrix(1,0,0,-1,0,512)"/>
 </clipPath>
 <clipPath id="clip69">
  <path clip-rule="evenodd" d="M61,455 c287,46,403,-21,403,-196 c0,-177,-116,-244,-403,-198 Z M212,321 l0,-126 c71,-5,102,15,102,64 c0,48,-31,68,-102,62 Z M212,321" transform="matrix(1,0,0,-1,0,512)"/>
 </clipPath>
 <g clip-path="url(#clip69)">
  <path d="M9.5,-9.5 c5.25,5.25,5.25,13.75,0,18.99 c-5.25,5.25,-13.75,5.25,-18.99,0.0 c-5.25,-5.25,-5.25,-13.75,-0.0,-18.99 c5.25,-5.25,13.75,-5.25,18.99,-0.0 Z M9.5,-9.5" fill="rgb(255,255,255)" fill-opacity="0.7201922457050254" stroke="rgb(255,255,255)" stroke-width="7.2" transform="matrix(1,0,0,-1,40,492)"/>
 </g>
 <clipPath id="clip70">
  <path clip-rule="evenodd" d="M61,455 c287,46,403,-21,403,-196 c0,-177,-116,-244,-403,-198 Z M212,321 l0,-126 c71,-5,102,15,102,64 c0,48,-31,68,-102,62 Z M212,321" transform="matrix(1,0,0,-1,0,512)"/>
 </clipPath>
 <g clip-path="url(#clip70)">
  <path d="M12.21,-12.21 c6.74,6.74,6.74,17.67,0,24.41 c-6.74,6.74,-17.67,6.74,-24.41,0.0 c-6.74,-6.74,-6.74,-17.67,-0.0,-24.41 c6.74,-6.74,17.67,-6.74,24.41,-0.0 Z M12.21,-12.21" fill="rgb(255,255,255)" fill-opacity="0.6512655681019364" stroke="rgb(255,255,255)" stroke-width="6.51" transform="matrix(1,0,0,-1,433,268)"/>
 </g>
 <clipPath id="clip71">
  <path clip-rule="evenodd" d="M61,455 c287,46,403,-21,403,-196 c0,-177,-116,-244,-403,-198 Z M212,321 l0,-126 c71,-5,102,15,102,64 c0,48,-31,68,-102,62 Z M212,321" transform="matrix(1,0,0,-1,0,512)"/>
 </clipPath>
 <g clip-path="url(#clip71)">
  <path d="M32.74,-32.74 c18.08,18.08,18.08,47.4,0,65.48 c-18.08,18.08,-47.4,18.08,-65.48,0.0 c-18.08,-18.08,-18.08,-47.4,-0.0,-65.48 c18.08,-18.08,47.4,-18.08,65.48,-0.0 Z M32.74,-32.74" fill="rgb(255,255,255)" fill-opacity="0.04533314201637351" stroke="rgb(255,255,255)" stroke-width="0.45" transform="matrix(1,0,0,-1,231,231)"/>
 </g>
 <clipPath id="clip72">
  <path clip-rule="evenodd" d="M61,455 c287,46,403,-21,403,-196 c0,-177,-116,-244,-403,-198 Z M212,321 l0,-126 c71,-5,102,15,102,64 c0,48,-31,68,-102,62 Z M212,321" transform="matrix(1,0,0,-1,0,512)"/>
 </clipPath>
 <clipPath id="clip73">
  <path clip-rule="evenodd" d="M61,455 c287,46,403,-21,403,-196 c0,-177,-116,-244,-403,-198 Z M212,321 l0,-126 c71,-5,102,15,102,64 c0,48,-31,68,-102,62 Z M212,321" transform="matrix(1,0,0,-1,0,512)"/>
 </clipPath>
 <g clip-path="url(#clip73)">
  <path d="M17.87,-17.87 c9.87,9.87,9.87,25.87,0,35.74 c-9.87,9.87,-25.87,9.87,-35.74,0.0 c-9.87,-9.87,-9.87,-25.87,-0.0,-35.74 c9.87,-9.87,25.87,-9.87,35.74,-0.0 Z M17.87,-17.87" fill="rgb(255,255,255)" fill-opacity="0.26748229266005774" stroke="rgb(255,255,255)" stroke-width="2.67" transform="matrix(1,0,0,-1,120,98)"/>
 </g>
 <clipPath id="clip74">
  <path clip-rule="evenodd" d="M61,455 c287,46,403,-21,403,-196 c0,-177,-116,-244,-403,-198 Z M212,321 l0,-126 c71,-5,102,15,102,64 c0,48,-31,68,-102,62 Z M212,321" transform="matrix(1,0,0,-1,0,512)"/>
 </clipPath>
 <clipPath id="clip75">
  <path clip-rule="evenodd" d="M61,455 c287,46,403,-21,403,-196 c0,-177,-116,-244,-403,-198 Z M212,321 l0,-126 c71,-5,102,15,102,64 c0,48,-31,68,-102,62 Z M212,321" transform="matrix(1,0,0,-1,0,512)"/>
 </clipPath>
 <clipPath id="clip76">
  <path clip-rule="evenodd" d="M61,455 c287,46,403,-21,403,-196 c0,-177,-116,-244,-403,-198 Z M212,321 l0,-126 c71,-5,102,15,102,64 c0,48,-31,68,-102,62 Z M212,321" transform="matrix(1,0,0,-1,0,512)"/>
 </clipPath>
 <clipPath id="clip77">
  <path clip-rule="evenodd" d="M61,455 c287,46,403,-21,403,-196 c0,-177,-116,-244,-403,-198 Z M212,321 l0,-126 c71,-5,102,15,102,64 c0,48,-31,68,-102,62 Z M212,321" transform="matrix(1,0,0,-1,0,512)"/>
 </clipPath>
 <clipPath id="clip78">
  <path clip-rule="evenodd" d="M61,455 c287,46,403,-21,403,-196 c0,-177,-116,-244,-403,-198 Z M212,321 l0,-126 c71,-5,102,15,102,64 c0,48,-31,68,-102,62 Z M212,321" transform="matrix(1,0,0,-1,0,512)"/>
 </clipPath>
 <clipPath id="clip79">
  <path clip-rule="evenodd" d="M61,455 c287,46,403,-21,403,-196 c0,-177,-116,-244,-403,-198 Z M212,321 l0,-126 c71,-5,102,15,102,64 c0,48,-31,68,-102,62 Z M212,321" transform="matrix(1,0,0,-1,0,512)"/>
 </clipPath>
 <clipPath id="clip80">
  <path clip-rule="evenodd" d="M61,455 c287,46,403,-21,403,-196 c0,-177,-116,-244,-403,-198 Z M212,321 l0,-126 c71,-5,102,15,102,64 c0,48,-31,68,-102,62 Z M212,321" transform="matrix(1,0,0,-1,0,512)"/>
 </clipPath>
 <g clip-path="url(#clip80)">
  <path d="M15.38,-15.38 c8.49,8.49,8.49,22.27,0,30.76 c-8.49,8.49,-22.27,8.49,-30.76,0.0 c-8.49,-8.49,-8.49,-22.27,-0.0,-30.76 c8.49,-8.49,22.27,-8.49,30.76,-0.0 Z M15.38,-15.38" fill="rgb(255,255,255)" fill-opacity="0.2626265488118432" stroke="rgb(255,255,255)" stroke-width="2.63" transform="matrix(1,0,0,-1,434,392)"/>
 </g>
 <clipPath id="clip81">
  <path clip-rule="evenodd" d="M61,455 c287,46,403,-21,403,-196 c0,-177,-116,-244,-403,-198 Z M212,321 l0,-126 c71,-5,102,15,102,64 c0,48,-31,68,-102,62 Z M212,321" transform="matrix(1,0,0,-1,0,512)"/>
 </clipPath>
 <g clip-path="url(#clip81)">
  <path d="M27.92,-27.92 c15.42,15.42,15.42,40.42,0,55.85 c-15.42,15.42,-40.42,15.42,-55.85,0.0 c-15.42,-15.42,-15.42,-40.42,-0.0,-55.85 c15.42,-15.42,40.42,-15.42,55.85,-0.0 Z M27.92,-27.92" fill="rgb(255,255,255)" fill-opacity="0.036860895660365434" stroke="rgb(255,255,255)" stroke-width="0.37" transform="matrix(1,0,0,-1,392,385)"/>
 </g>
 <clipPath id="clip82">
  <path clip-rule="evenodd" d="M61,455 c287,46,403,-21,403,-196 c0,-177,-116,-244,-403,-198 Z M212,321 l0,-126 c71,-5,102,15,102,64 c0,48,-31,68,-102,62 Z M212,321" transform="matrix(1,0,0,-1,0,512)"/>
 </clipPath>
 <clipPath id="clip83">
  <path clip-rule="evenodd" d="M61,455 c287,46,403,-21,403,-196 c0,-177,-116,-244,-403,-198 Z M212,321 l0,-126 c71,-5,102,15,102,64 c0,48,-31,68,-102,62 Z M212,321" transform="matrix(1,0,0,-1,0,512)"/>
 </clipPath>
 <clipPath id="clip84">
  <path clip-rule="evenodd" d="M61,455 c287,46,403,-21,403,-196 c0,-177,-116,-244,-403,-198 Z M212,321 l0,-126 c71,-5,102,15,102,64 c0,48,-31,68,-102,62 Z M212,321" transform="matrix(1,0,0,-1,0,512)"/>
 </clipPath>
 <clipPath id="clip85">
  <path clip-rule="evenodd" d="M61,455 c287,46,403,-21,403,-196 c0,-177,-116,-244,-403,-198 Z M212,321 l0,-126 c71,-5,102,15,102,64 c0,48,-31,68,-102,62 Z M212,321" transform="matrix(1,0,0,-1,0,512)"/>
 </clipPath>
 <clipPath id="clip86">
  <path clip-rule="evenodd" d="M61,455 c287,46,403,-21,403,-196 c0,-177,-116,-244,-403,-198 Z M212,321 l0,-126 c71,-5,102,15,102,64 c0,48,-31,68,-102,62 Z M212,321" transform="matrix(1,0,0,-1,0,512)"/>
 </clipPath>
 <clipPath id="clip87">
  <path clip-rule="evenodd" d="M61,455 c287,46,403,-21,403,-196 c0,-177,-116,-244,-403,-198 Z M212,321 l0,-126 c71,-5,102,15,102,64 c0,48,-31,68,-102,62 Z M212,321" transform="matrix(1,0,0,-1,0,512)"/>
 </clipPath>
 <clipPath id="clip88">
  <path clip-rule="evenodd" d="M61,455 c287,46,403,-21,403,-196 c0,-177,-116,-244,-403,-198 Z M212,321 l0,-126 c71,-5,102,15,102,64 c0,48,-31,68,-102,62 Z M212,321" transform="matrix(1,0,0,-1,0,512)"/>
 </clipPath>
 <g clip-path="url(#clip88)">
  <path d="M23.38,-23.38 c12.91,12.91,12.91,33.85,0,46.77 c-12.91,12.91,-33.85,12.91,-46.77,0.0 c-12.91,-12.91,-12.91,-33.85,-0.0,-46.77 c12.91,-12.91,33.85,-12.91,46.77,-0.0 Z M23.38,-23.38" fill="rgb(255,255,255)" fill-opacity="0.18345083377565752" stroke="rgb(255,255,255)" stroke-width="1.83" transform="matrix(1,0,0,-1,232,3)"/>
 </g>
 <clipPath id="clip89">
  <path clip-rule="evenodd" d="M61,455 c287,46,403,-21,403,-196 c0,-177,-116,-244,-403,-198 Z M212,321 l0,-126 c71,-5,102,15,102,64 c0,48,-31,68,-102,62 Z M212,321" transform="matrix(1,0,0,-1,0,512)"/>
 </clipPath>
 <clipPath id="clip90">
  <path clip-rule="evenodd" d="M61,455 c287,46,403,-21,403,-196 c0,-177,-116,-244,-403,-198 Z M212,321 l0,-126 c71,-5,102,15,102,64 c0,48,-31,68,-102,62 Z M212,321" transform="matrix(1,0,0,-1,0,512)"/>
 </clipPath>
 <clipPath id="clip91">
  <path clip-rule="evenodd" d="M61,455 c287,46,403,-21,403,-196 c0,-177,-116,-244,-403,-198 Z M212,321 l0,-126 c71,-5,102,15,102,64 c0,48,-31,68,-102,62 Z M212,321" transform="matrix(1,0,0,-1,0,512)"/>
 </clipPath>
 <clipPath id="clip92">
  <path clip-rule="evenodd" d="M61,455 c287,46,403,-21,403,-196 c0,-177,-116,-244,-403,-198 Z M212,321 l0,-126 c71,-5,102,15,102,64 c0,48,-31,68,-102,62 Z M212,321" transform="matrix(1,0,0,-1,0,512)"/>
 </clipPath>
 <clipPath id="clip93">
  <path clip-rule="evenodd" d="M61,455 c287,46,403,-21,403,-196 c0,-177,-116,-244,-403,-198 Z M212,321 l0,-126 c71,-5,102,15,102,64 c0,48,-31,68,-102,62 Z M212,321" transform="matrix(1,0,0,-1,0,512)"/>
 </clipPath>
 <clipPath id="clip94">
  <path clip-rule="evenodd" d="M61,455 c287,46,403,-21,403,-196 c0,-177,-116,-244,-403,-198 Z M212,321 l0,-126 c71,-5,102,15,102,64 c0,48,-31,68,-102,62 Z M212,321" transform="matrix(1,0,0,-1,0,512)"/>
 </clipPath>
 <g clip-path="url(#clip94)">
  <path d="M15.53,-15.53 c8.58,8.58,8.58,22.48,0,31.05 c-8.58,8.58,-22.48,8.58,-31.05,0.0 c-8.58,-8.58,-8.58,-22.48,-0.0,-31.05 c8.58,-8.58,22.48,-8.58,31.05,-0.0 Z M15.53,-15.53" fill="rgb(255,255,255)" fill-opacity="0.5518575270569175" stroke="rgb(255,255,255)" stroke-width="5.52" transform="matrix(1,0,0,-1,437,410)"/>
 </g>
 <clipPath id="clip95">
  <path clip-rule="evenodd" d="M61,455 c287,46,403,-21,403,-196 c0,-177,-116,-244,-403,-198 Z M212,321 l0,-126 c71,-5,102,15,102,64 c0,48,-31,68,-102,62 Z M212,321" transform="matrix(1,0,0,-1,0,512)"/>
 </clipPath>
 <clipPath id="clip96">
  <path clip-rule="evenodd" d="M61,455 c287,46,403,-21,403,-196 c0,-177,-116,-244,-403,-198 Z M212,321 l0,-126 c71,-5,102,15,102,64 c0,48,-31,68,-102,62 Z M212,321" transform="matrix(1,0,0,-1,0,512)"/>
 </clipPath>
 <clipPath id="clip97">
  <path clip-rule="evenodd" d="M61,455 c287,46,403,-21,403,-196 c0,-177,-116,-244,-403,-198 Z M212,321 l0,-126 c71,-5,102,15,102,64 c0,48,-31,68,-102,62 Z M212,321" transform="matrix(1,0,0,-1,0,512)"/>
 </clipPath>
 <g clip-path="url(#clip97)">
  <path d="M9.48,-9.48 c5.23,5.23,5.23,13.72,0,18.95 c-5.23,5.23,-13.72,5.23,-18.95,0.0 c-5.23,-5.23,-5.23,-13.72,-0.0,-18.95 c5.23,-5.23,13.72,-5.23,18.95,-0.0 Z M9.48,-9.48" fill="rgb(255,255,255)" fill-opacity="0.632817289973568" stroke="rgb(255,255,255)" stroke-width="6.33" transform="matrix(1,0,0,-1,451,335)"/>
 </g>
 <clipPath id="clip98">
  <path clip-rule="evenodd" d="M61,455 c287,46,403,-21,403,-196 c0,-177,-116,-244,-403,-198 Z M212,321 l0,-126 c71,-5,102,15,102,64 c0,48,-31,68,-102,62 Z M212,321" transform="matrix(1,0,0,-1,0,512)"/>
 </clipPath>
 <g clip-path="url(#clip98)">
  <path d="M8.54,-8.54 c4.71,4.71,4.71,12.36,0,17.07 c-4.71,4.71,-12.36,4.71,-17.07,0.0 c-4.71,-4.71,-4.71,-12.36,-0.0,-17.07 c4.71,-4.71,12.36,-4.71,17.07,-0.0 Z M8.54,-8.54" fill="rgb(255,255,255)" fill-opacity="0.3645588496592368" stroke="rgb(255,255,255)" stroke-width="3.65" transform="matrix(1,0,0,-1,276,368)"/>
 </g>
 <clipPath id="clip99">
  <path clip-rule="evenodd" d="M61,455 c287,46,403,-21,403,-196 c0,-177,-116,-244,-403,-198 Z M212,321 l0,-126 c71,-5,102,15,102,64 c0,48,-31,68,-102,62 Z M212,321" transform="matrix(1,0,0,-1,0,512)"/>
 </clipPath>
 <clipPath id="clip100">
  <path clip-rule="evenodd" d="M61,455 c287,46,403,-21,403,-196 c0,-177,-116,-244,-403,-198 Z M212,321 l0,-126 c71,-5,102,15,102,64 c0,48,-31,68,-102,62 Z M212,321" transform="matrix(1,0,0,-1,0,512)"/>
 </clipPath>
 <clipPath id="clip101">
  <path clip-rule="evenodd" d="M61,455 c287,46,403,-21,403,-196 c0,-177,-116,-244,-403,-198 Z M212,321 l0,-126 c71,-5,102,15,102,64 c0,48,-31,68,-102,62 Z M212,321" transform="matrix(1,0,0,-1,0,512)"/>
 </clipPath>
 <clipPath id="clip102">
  <path clip-rule="evenodd" d="M61,455 c287,46,403,-21,403,-196 c0,-177,-116,-244,-403,-198 Z M212,321 l0,-126 c71,-5,102,15,102,64 c0,48,-31,68,-102,62 Z M212,321" transform="matrix(1,0,0,-1,0,512)"/>
 </clipPath>
 <g clip-path="url(#clip102)">
  <path d="M61,455 c287,46,403,-21,403,-196 c0,-177,-116,-244,-403,-198 Z M212,321 l0,-126 c71,-5,102,15,102,64 c0,48,-31,68,-102,62 Z M382.27,221.0 c9.76,9.76,9.76,25.59,0,35.36 c-9.76,9.76,-25.59,9.76,-35.36,0.0 c-9.76,-9.76,-9.76,-25.59,-0.0,-35.36 c9.76,-9.76,25.59,-9.76,35.36,0 Z M382.27,221.0" fill="none" stroke="rgb(0,0,0)" stroke-opacity="0.25" stroke-width="61" transform="matrix(1,0,0,-1,-20,532)"/>
 </g>
 <path d="M61,455 c287,46,403,-21,403,-196 c0,-177,-116,-244,-403,-198 Z M212,321 l0,-126 c71,-5,102,15,102,64 c0,48,-31,68,-102,62 Z M212,321" fill="none" stroke="rgb(255,255,255)" stroke-width="30" transform="matrix(1,0,0,-1,0,512)"/>
 <path d="M0,0 l-40,40 l0,100 l80,0 l0,-100 Z M0,0" fill="rgb(255,25,255)" stroke="rgb(127,0,127)" stroke-width="18" transform="matrix(0.9414657946925815,0.33710852469770913,0.33710852469770913,-0.9414657946925815,313.5903117079845,368.3243286540784)"/>
 <path d="M28.28,135.86 c15.62,7.81,15.62,20.47,0,28.28 c-15.62,7.81,-40.95,7.81,-56.57,0 c-15.62,-7.81,-15.62,-20.47,-0.0,-28.28 c15.62,-7.81,40.95,-7.81,56.57,0 Z M28.28,135.86" fill="rgb(255,25,255)" stroke="rgb(127,0,127)" stroke-width="18" transform="matrix(0.9414657946925815,0.33710852469770913,0.33710852469770913,-0.9414657946925815,313.5903117079845,368.3243286540784)"/>
 <path d="M14.14,5.86 c7.81,7.81,7.81,20.47,0,28.28 c-7.81,7.81,-20.47,7.81,-28.28,0 c-7.81,-7.81,-7.81,-20.47,-0.0,-28.28 c7.81,-7.81,20.47,-7.81,28.28,-0.0 Z M14.14,5.86" fill="rgb(127,0,127)" transform="matrix(0.9414657946925815,0.33710852469770913,0.33710852469770913,-0.9414657946925815,313.5903117079845,368.3243286540784)"/>
</svg>