<?xml version="1.0" encoding="ISO-8859-1"?>
<svg height="512" version="1.1" width="512" xmlns="http://www.w3.org/2000/svg" xmlns:xlink="http://www.w3.org/1999/xlink">
  <path d="M36.0,234.0 L46.0,38.0 C46.0,38.0,242.0,-22.0,242.0,134.0 C242.0,270.0,106.0,250.0,36.0,234.0 Z M113.0,175.0 C136.0,180.0,162.0,178.0,162.0,136.0 C162.0,87.0,116.0,97.0,116.0,97.0 Z M113.0,175.0 " fill="rgba(0,0,0,0.5)" stroke="none" stroke-dasharray="none" stroke-linecap="inherit" stroke-linejoin="inherit" stroke-width="1" transform="matrix(2.0061103429,-0.105135788068,-0.105135788068,-2.0061103429,-11.7460384746,561.650792305)"/>
  <clipPath id="b833ecf2-b118-4b5b-b612-ecc4a093e64b">
    <path clip-rule="evenodd" d="M36.0,234.0 L46.0,38.0 C46.0,38.0,242.0,-22.0,242.0,134.0 C242.0,270.0,106.0,250.0,36.0,234.0 Z M113.0,175.0 C136.0,180.0,162.0,178.0,162.0,136.0 C162.0,87.0,116.0,97.0,116.0,97.0 Z M113.0,175.0 " transform="matrix(2.0,0.0698415389835,0.0698415389835,-2.0,10.0,512.349207695)"/>
  </clipPath>
  <g clip-path="url(#b833ecf2-b118-4b5b-b612-ecc4a093e64b)">
    <path d="M0.0,0.0 L1000.0,0.0 L1000.0,1000.0 L0.0,1000.0 Z M0.0,0.0 " fill="rgba(255,127,0,1.0)" stroke="none" stroke-dasharray="none" stroke-linecap="inherit" stroke-linejoin="inherit" stroke-width="1" transform="matrix(2.0,0.0698415389835,0.0698415389835,-2.0,10.0,512.349207695)"/>
  </g>
  <g clip-path="url(#b833ecf2-b118-4b5b-b612-ecc4a093e64b)">
    <path d="M193.075447762,222.509993817 C245.457547853,159.713246205,276.657267909,299.348756856,263.980127532,232.925977253 C214.541282638,224.564218718,206.717518138,174.80030932,295.138846543,151.830917693 C243.912504954,176.343876177,229.28234725,169.625212607,103.61835575,172.556565284 Z M193.075447762,222.509993817 " fill="rgba(174,19,115,0.227650760447)" stroke="none" stroke-dasharray="none" stroke-linecap="inherit" stroke-linejoin="inherit" stroke-width="1" transform="matrix(2.0,0.0698415389835,0.0698415389835,-2.0,10.0,512.349207695)"/>
  </g>
  <g clip-path="url(#b833ecf2-b118-4b5b-b612-ecc4a093e64b)">
    <path d="M169.513837228,172.837075984 C189.910038531,220.483311612,136.601221506,233.611914262,258.891828471,290.51873241 C270.305053705,295.313489321,178.831698631,135.022322779,169.488724608,266.721192162 C135.957509934,122.102578003,254.092093949,244.044180318,220.227917754,298.053647291 Z M169.513837228,172.837075984 " fill="rgba(123,120,223,0.424507020807)" stroke="none" stroke-dasharray="none" stroke-linecap="inherit" stroke-linejoin="inherit" stroke-width="1" transform="matrix(2.0,0.0698415389835,0.0698415389835,-2.0,10.0,512.349207695)"/>
  </g>
  <g clip-path="url(#b833ecf2-b118-4b5b-b612-ecc4a093e64b)">
    <path d="M358.34226753,106.119699674 C107.281135804,161.754337463,128.25855993,170.52912004,123.860784123,233.894535246 C127.259467131,246.55038212,144.787229451,189.831410539,225.724333358,282.637677041 C223.110453646,104.198946689,252.584942735,279.657801242,116.539953311,255.385783355 Z M358.34226753,106.119699674 " fill="rgba(156,187,53,0.493787489779)" stroke="none" stroke-dasharray="none" stroke-linecap="inherit" stroke-linejoin="inherit" stroke-width="1" transform="matrix(2.0,0.0698415389835,0.0698415389835,-2.0,10.0,512.349207695)"/>
  </g>
  <g clip-path="url(#b833ecf2-b118-4b5b-b612-ecc4a093e64b)">
    <path d="M248.476358769,260.032548499 C102.947010762,236.968909054,181.4711018,110.123779901,171.071540852,150.240346328 C138.996751316,232.572666006,179.520945818,157.219339782,185.450306086,101.995108091 C249.718205508,227.017754206,186.509603426,125.498981669,243.811783979,170.204973151 Z M248.476358769,260.032548499 " fill="rgba(25,253,77,0.62509833947)" stroke="none" stroke-dasharray="none" stroke-linecap="inherit" stroke-linejoin="inherit" stroke-width="1" transform="matrix(2.0,0.0698415389835,0.0698415389835,-2.0,10.0,512.349207695)"/>
  </g>
  <g clip-path="url(#b833ecf2-b118-4b5b-b612-ecc4a093e64b)">
    <path d="M241.447186091,114.009419226 C117.862002096,233.874788191,126.664719731,289.533756591,253.404664162,182.723918807 C278.768248005,274.474330524,272.025599985,135.863310895,115.698856234,288.490693144 C216.511140544,188.097790122,154.885505521,131.95366305,241.069141683,203.197412603 Z M241.447186091,114.009419226 " fill="rgba(136,156,189,0.383163476336)" stroke="none" stroke-dasharray="none" stroke-linecap="inherit" stroke-linejoin="inherit" stroke-width="1" transform="matrix(2.0,0.0698415389835,0.0698415389835,-2.0,10.0,512.349207695)"/>
  </g>
  <g clip-path="url(#b833ecf2-b118-4b5b-b612-ecc4a093e64b)">
    <path d="M228.718481896,114.261832211 C281.491532079,197.65482253,292.930432213,178.332767538,253.559857721,124.380760781 C189.875412195,285.176573414,148.297620459,223.203338599,212.443043573,249.174294089 C211.812672683,291.992918502,213.177518086,109.025120259,107.753347059,202.70835307 Z M228.718481896,114.261832211 " fill="rgba(234,193,38,0.787545325169)" stroke="none" stroke-dasharray="none" stroke-linecap="inherit" stroke-linejoin="inherit" stroke-width="1" transform="matrix(2.0,0.0698415389835,0.0698415389835,-2.0,10.0,512.349207695)"/>
  </g>
  <g clip-path="url(#b833ecf2-b118-4b5b-b612-ecc4a093e64b)">
    <path d="M378.865340605,41.2408248323 C134.247002306,186.474127988,116.91247793,285.4666139,229.144180365,281.185890404 C242.002924033,196.108746332,145.314306707,141.000792912,289.852312499,169.109467952 C266.29982931,267.762019384,137.874570124,284.626288605,165.900709978,171.061093613 Z M378.865340605,41.2408248323 " fill="rgba(63,83,10,0.740137425831)" stroke="none" stroke-dasharray="none" stroke-linecap="inherit" stroke-linejoin="inherit" stroke-width="1" transform="matrix(2.0,0.0698415389835,0.0698415389835,-2.0,10.0,512.349207695)"/>
  </g>
  <g clip-path="url(#b833ecf2-b118-4b5b-b612-ecc4a093e64b)">
    <path d="M214.519271736,110.988822564 C293.930808815,121.504047295,148.48263438,173.167166028,139.822475953,124.604711654 C197.985056735,165.623560536,127.301396747,201.714893091,249.263169971,151.527230623 C103.337007603,222.439876757,107.805023895,295.246135767,140.021733025,199.567247882 Z M214.519271736,110.988822564 " fill="rgba(84,1,136,0.292171551024)" stroke="none" stroke-dasharray="none" stroke-linecap="inherit" stroke-linejoin="inherit" stroke-width="1" transform="matrix(2.0,0.0698415389835,0.0698415389835,-2.0,10.0,512.349207695)"/>
  </g>
  <g clip-path="url(#b833ecf2-b118-4b5b-b612-ecc4a093e64b)">
    <path d="M154.074682956,295.466393176 C178.128694903,289.500407179,280.608503175,299.660494499,250.091148445,204.697166238 C191.403685602,180.112473588,116.444733316,216.164986421,190.203917213,154.900157321 C126.407080389,237.340167999,289.140978464,147.746820479,112.487712173,269.204269651 Z M154.074682956,295.466393176 " fill="rgba(209,114,20,0.167265202603)" stroke="none" stroke-dasharray="none" stroke-linecap="inherit" stroke-linejoin="inherit" stroke-width="1" transform="matrix(2.0,0.0698415389835,0.0698415389835,-2.0,10.0,512.349207695)"/>
  </g>
  <g clip-path="url(#b833ecf2-b118-4b5b-b612-ecc4a093e64b)">
    <path d="M67.2878579952,313.585192588 C176.783482276,288.61640634,289.229992398,162.728812219,275.158151623,252.017315289 C270.580625021,297.14882347,250.284101786,282.56100289,227.411305555,106.144381683 C272.238989434,296.377971751,247.958977014,163.935790887,271.854278582,291.26012772 Z M67.2878579952,313.585192588 " fill="rgba(166,67,70,0.319684718249)" stroke="none" stroke-dasharray="none" stroke-linecap="inherit" stroke-linejoin="inherit" stroke-width="1" transform="matrix(2.0,0.0698415389835,0.0698415389835,-2.0,10.0,512.349207695)"/>
  </g>
  <g clip-path="url(#b833ecf2-b118-4b5b-b612-ecc4a093e64b)">
    <path d="M345.835773122,251.509511049 C274.301924898,127.528752942,135.516630889,185.896200511,143.53769773,259.727368296 C148.714188717,101.233888869,219.563420996,264.890794955,167.864673791,287.526502999 C293.004166953,150.558019307,238.933593067,232.272942324,227.853043142,189.212189448 Z M345.835773122,251.509511049 " fill="rgba(176,60,169,0.710505385984)" stroke="none" stroke-dasharray="none" stroke-linecap="inherit" stroke-linejoin="inherit" stroke-width="1" transform="matrix(2.0,0.0698415389835,0.0698415389835,-2.0,10.0,512.349207695)"/>
  </g>
  <g clip-path="url(#b833ecf2-b118-4b5b-b612-ecc4a093e64b)">
    <path d="M245.506378375,158.97662102 C179.707480409,216.76843141,101.68347909,224.265934648,252.94880262,172.970193795 C240.025512052,186.525821859,169.272839791,192.426707138,285.834905641,106.993481774 C243.239341781,297.539228372,134.765697579,103.824743016,106.388974938,273.532069059 Z M245.506378375,158.97662102 " fill="rgba(48,92,3,0.316735948363)" stroke="none" stroke-dasharray="none" stroke-linecap="inherit" stroke-linejoin="inherit" stroke-width="1" transform="matrix(2.0,0.0698415389835,0.0698415389835,-2.0,10.0,512.349207695)"/>
  </g>
  <g clip-path="url(#b833ecf2-b118-4b5b-b612-ecc4a093e64b)">
    <path d="M167.939038994,332.300891836 C116.766864927,242.24060364,212.787331986,287.829080312,240.678401782,170.989932633 C166.591152691,115.945678673,169.706584391,297.286001232,184.301722036,225.830657186 C225.193490595,208.282687236,120.629445757,205.404921242,168.469495275,200.028282463 Z M167.939038994,332.300891836 " fill="rgba(76,131,27,0.395645347122)" stroke="none" stroke-dasharray="none" stroke-linecap="inherit" stroke-linejoin="inherit" stroke-width="1" transform="matrix(2.0,0.0698415389835,0.0698415389835,-2.0,10.0,512.349207695)"/>
  </g>
  <g clip-path="url(#b833ecf2-b118-4b5b-b612-ecc4a093e64b)">
    <path d="M242.691598419,336.617324882 C246.820303241,261.322465245,135.102170903,258.78671622,257.826235663,297.147744235 C287.763854944,298.824025323,102.688847527,231.244701874,246.455939922,170.649804144 C163.556356769,187.146515813,143.966091301,206.025624963,231.939429756,189.441187611 Z M242.691598419,336.617324882 " fill="rgba(72,117,44,0.334051931775)" stroke="none" stroke-dasharray="none" stroke-linecap="inherit" stroke-linejoin="inherit" stroke-width="1" transform="matrix(2.0,0.0698415389835,0.0698415389835,-2.0,10.0,512.349207695)"/>
  </g>
  <g clip-path="url(#b833ecf2-b118-4b5b-b612-ecc4a093e64b)">
    <path d="M35.8534291306,296.789379868 C165.561722767,159.017170674,216.085731251,236.207641511,229.199482503,220.533855954 C141.182500757,181.811458998,108.426893665,291.737619696,270.009324649,174.637300189 C168.913432088,167.670015947,192.342108435,297.090670054,299.869219647,155.234386833 Z M35.8534291306,296.789379868 " fill="rgba(67,117,17,0.699523928102)" stroke="none" stroke-dasharray="none" stroke-linecap="inherit" stroke-linejoin="inherit" stroke-width="1" transform="matrix(2.0,0.0698415389835,0.0698415389835,-2.0,10.0,512.349207695)"/>
  </g>
  <g clip-path="url(#b833ecf2-b118-4b5b-b612-ecc4a093e64b)">
    <path d="M147.94794459,267.530971832 C226.468388694,262.266502485,261.515926852,258.529497205,295.232445492,164.785455136 C254.247682391,105.037804762,193.083653724,147.64431766,259.174063393,112.219726888 C152.674641975,126.433662257,157.30079428,261.223520833,108.613644848,155.3003668 Z M147.94794459,267.530971832 " fill="rgba(58,73,231,0.0724492796683)" stroke="none" stroke-dasharray="none" stroke-linecap="inherit" stroke-linejoin="inherit" stroke-width="1" transform="matrix(2.0,0.0698415389835,0.0698415389835,-2.0,10.0,512.349207695)"/>
  </g>
  <g clip-path="url(#b833ecf2-b118-4b5b-b612-ecc4a093e64b)">
    <path d="M308.538313535,64.3114058193 C187.269621117,177.072008791,218.158171053,138.442601738,235.014001495,229.886560186 C256.937912325,118.381438319,296.530712216,181.105956891,119.953524488,162.950013604 C196.564203618,272.668895038,188.03790828,254.576086115,180.073678559,243.174157251 Z M308.538313535,64.3114058193 " fill="rgba(241,10,179,0.0827242841198)" stroke="none" stroke-dasharray="none" stroke-linecap="inherit" stroke-linejoin="inherit" stroke-width="1" transform="matrix(2.0,0.0698415389835,0.0698415389835,-2.0,10.0,512.349207695)"/>
  </g>
  <g clip-path="url(#b833ecf2-b118-4b5b-b612-ecc4a093e64b)">
    <path d="M63.9279590609,68.0758570862 C225.292670958,288.694704135,167.527122408,185.380303085,183.767193923,148.657204898 C138.147468902,261.680252243,286.008068108,289.260325203,240.30931412,286.561005064 C177.900639103,154.373824303,143.481194808,146.615323839,298.263924203,227.689831015 Z M63.9279590609,68.0758570862 " fill="rgba(161,47,186,0.296654370694)" stroke="none" stroke-dasharray="none" stroke-linecap="inherit" stroke-linejoin="inherit" stroke-width="1" transform="matrix(2.0,0.0698415389835,0.0698415389835,-2.0,10.0,512.349207695)"/>
  </g>
  <g clip-path="url(#b833ecf2-b118-4b5b-b612-ecc4a093e64b)">
    <path d="M118.972923459,369.081924692 C232.006663487,246.678525929,179.756233877,232.624845193,122.980373151,269.587309424 C280.060433093,252.571866898,139.184494846,230.275632227,253.990456076,260.23682727 C121.262601184,230.54364617,142.129345501,108.430752209,225.441348941,236.195770968 Z M118.972923459,369.081924692 " fill="rgba(80,45,209,0.279973490725)" stroke="none" stroke-dasharray="none" stroke-linecap="inherit" stroke-linejoin="inherit" stroke-width="1" transform="matrix(2.0,0.0698415389835,0.0698415389835,-2.0,10.0,512.349207695)"/>
  </g>
  <g clip-path="url(#b833ecf2-b118-4b5b-b612-ecc4a093e64b)">
    <path d="M0.897593750717,144.163274198 C114.421219331,176.895687921,283.42740483,218.886141064,228.123637536,240.225494853 C117.079672709,172.820516386,236.579489854,136.620466326,220.054722363,287.82840115 C114.658426035,209.720236858,131.026197239,179.549307632,153.401881482,249.572785774 Z M0.897593750717,144.163274198 " fill="rgba(10,79,93,0.0995619208368)" stroke="none" stroke-dasharray="none" stroke-linecap="inherit" stroke-linejoin="inherit" stroke-width="1" transform="matrix(2.0,0.0698415389835,0.0698415389835,-2.0,10.0,512.349207695)"/>
  </g>
  <g clip-path="url(#b833ecf2-b118-4b5b-b612-ecc4a093e64b)">
    <path d="M181.404509669,197.905044021 C189.019733358,205.52026771,189.019733358,217.866984798,181.404509669,225.482208487 C173.78928598,233.097432176,161.442568892,233.097432176,153.827345203,225.482208487 C146.212121514,217.866984798,146.212121514,205.52026771,153.827345203,197.905044021 C161.442568892,190.289820332,173.78928598,190.289820332,181.404509669,197.905044021 " fill="rgba(255,0,0,0.0)" stroke="rgba(255,0,0,0.5)" stroke-dasharray="none" stroke-linecap="inherit" stroke-linejoin="inherit" stroke-width="2" transform="matrix(2.0,0.0698415389835,0.0698415389835,-2.0,10.0,512.349207695)"/>
  </g>
  <g clip-path="url(#b833ecf2-b118-4b5b-b612-ecc4a093e64b)">
    <path d="M123.946270584,88.9973310207 C130.585183543,95.6362439804,130.585183543,106.400048621,123.946270584,113.038961581 C117.307357624,119.677874541,106.543552983,119.677874541,99.9046400233,113.038961581 C93.2657270635,106.400048621,93.2657270635,95.6362439804,99.9046400233,88.9973310207 C106.543552983,82.3584180609,117.307357624,82.3584180609,123.946270584,88.9973310207 " fill="rgba(255,0,0,0.5)" stroke="rgba(255,0,0,0.5)" stroke-dasharray="none" stroke-linecap="inherit" stroke-linejoin="inherit" stroke-width="2" transform="matrix(2.0,0.0698415389835,0.0698415389835,-2.0,10.0,512.349207695)"/>
  </g>
  <g clip-path="url(#b833ecf2-b118-4b5b-b612-ecc4a093e64b)">
    <path d="M202.596821911,160.634529162 C209.626259163,167.663966413,209.626259163,179.060936033,202.596821911,186.090373284 C195.56738466,193.119810536,184.17041504,193.119810536,177.140977788,186.090373284 C170.111540537,179.060936033,170.111540537,167.663966413,177.140977788,160.634529162 C184.17041504,153.60509191,195.56738466,153.60509191,202.596821911,160.634529162 " fill="rgba(255,0,0,0.5)" stroke="rgba(255,0,0,0.5)" stroke-dasharray="none" stroke-linecap="inherit" stroke-linejoin="inherit" stroke-width="2" transform="matrix(2.0,0.0698415389835,0.0698415389835,-2.0,10.0,512.349207695)"/>
  </g>
  <g clip-path="url(#b833ecf2-b118-4b5b-b612-ecc4a093e64b)">
    <path d="M136.15832678,43.1478266133 C142.406715448,49.3962152813,142.406715448,59.5268549432,136.15832678,65.7752436113 C129.909938112,72.0236322793,119.77929845,72.0236322793,113.530909782,65.7752436113 C107.282521114,59.5268549432,107.282521114,49.3962152813,113.530909782,43.1478266133 C119.77929845,36.8994379453,129.909938112,36.8994379453,136.15832678,43.1478266133 " fill="rgba(255,0,0,0.0)" stroke="rgba(255,0,0,0.5)" stroke-dasharray="none" stroke-linecap="inherit" stroke-linejoin="inherit" stroke-width="2" transform="matrix(2.0,0.0698415389835,0.0698415389835,-2.0,10.0,512.349207695)"/>
  </g>
  <g clip-path="url(#b833ecf2-b118-4b5b-b612-ecc4a093e64b)">
    <path d="M36.0,234.0 L46.0,38.0 C46.0,38.0,242.0,-22.0,242.0,134.0 C242.0,270.0,106.0,250.0,36.0,234.0 Z M113.0,175.0 C136.0,180.0,162.0,178.0,162.0,136.0 C162.0,87.0,116.0,97.0,116.0,97.0 Z M113.0,175.0 " fill="none" stroke="rgba(0,0,0,0.5)" stroke-dasharray="none" stroke-linecap="inherit" stroke-linejoin="inherit" stroke-width="25" transform="matrix(2.0,0.0698415389835,0.0698415389835,-2.0,-10.6984153898,531.650792305)"/>
  </g>
  <path d="M36.0,234.0 L46.0,38.0 C46.0,38.0,242.0,-22.0,242.0,134.0 C242.0,270.0,106.0,250.0,36.0,234.0 Z M113.0,175.0 C136.0,180.0,162.0,178.0,162.0,136.0 C162.0,87.0,116.0,97.0,116.0,97.0 Z M113.0,175.0 " fill="none" stroke="rgba(255,255,255,1.0)" stroke-dasharray="none" stroke-linecap="inherit" stroke-linejoin="inherit" stroke-width="8" transform="matrix(2.0,0.0698415389835,0.0698415389835,-2.0,10.0,512.349207695)"/>
  <path d="M47.5929394352,119.781175684 C56.5749981455,128.763234395,56.5749981455,143.326028909,47.5929394352,152.308087619 C38.610880725,161.290146329,24.0480862109,161.290146329,15.0660275007,152.308087619 C6.08396879037,143.326028909,6.08396879037,128.763234395,15.0660275007,119.781175684 C24.0480862109,110.799116974,38.610880725,110.799116974,47.5929394352,119.781175684 " fill="none" stroke="rgba(255,255,255,1.0)" stroke-dasharray="none" stroke-linecap="inherit" stroke-linejoin="inherit" stroke-width="2" transform="matrix(2.0,0.0698415389835,0.0698415389835,-2.0,10.0,512.349207695)"/>
  <path d="M164.712030915,35.6209749975 C171.546206021,42.4551501032,171.546206021,53.5355372334,164.712030915,60.3697123391 C157.877855809,67.2038874447,146.797468679,67.2038874447,139.963293574,60.3697123391 C133.129118468,53.5355372334,133.129118468,42.4551501032,139.963293574,35.6209749975 C146.797468679,28.7867998919,157.877855809,28.7867998919,164.712030915,35.6209749975 " fill="rgba(255,255,255,0.5)" stroke="rgba(255,255,255,1.0)" stroke-dasharray="none" stroke-linecap="inherit" stroke-linejoin="inherit" stroke-width="2" transform="matrix(2.0,0.0698415389835,0.0698415389835,-2.0,10.0,512.349207695)"/>
  <path d="M145.351811268,128.905798071 C153.552821394,137.106808198,153.552821394,150.403272754,145.351811268,158.604282881 C137.150801141,166.805293008,123.854336584,166.805293008,115.653326458,158.604282881 C107.452316331,150.403272754,107.452316331,137.106808198,115.653326458,128.905798071 C123.854336584,120.704787945,137.150801141,120.704787945,145.351811268,128.905798071 " fill="rgba(255,255,255,0.5)" stroke="rgba(255,255,255,1.0)" stroke-dasharray="none" stroke-linecap="inherit" stroke-linejoin="inherit" stroke-width="2" transform="matrix(2.0,0.0698415389835,0.0698415389835,-2.0,10.0,512.349207695)"/>
  <path d="M176.700711398,72.343247788 C181.582265045,77.2248014349,181.582265045,85.1393636708,176.700711398,90.0209173177 C171.819157751,94.9024709646,163.904595515,94.9024709646,159.023041868,90.0209173177 C154.141488221,85.1393636708,154.141488221,77.2248014349,159.023041868,72.343247788 C163.904595515,67.4616941411,171.819157751,67.4616941411,176.700711398,72.343247788 " fill="rgba(255,255,255,0.5)" stroke="rgba(255,255,255,1.0)" stroke-dasharray="none" stroke-linecap="inherit" stroke-linejoin="inherit" stroke-width="2" transform="matrix(2.0,0.0698415389835,0.0698415389835,-2.0,10.0,512.349207695)"/>
  <path d="M183.657087457,165.675894807 C190.686524708,172.705332058,190.686524708,184.102301678,183.657087457,191.131738929 C176.627650205,198.161176181,165.230680586,198.161176181,158.201243334,191.131738929 C151.171806083,184.102301678,151.171806083,172.705332058,158.201243334,165.675894807 C165.230680586,158.646457555,176.627650205,158.646457555,183.657087457,165.675894807 " fill="rgba(255,255,255,0.5)" stroke="rgba(255,255,255,1.0)" stroke-dasharray="none" stroke-linecap="inherit" stroke-linejoin="inherit" stroke-width="2" transform="matrix(2.0,0.0698415389835,0.0698415389835,-2.0,10.0,512.349207695)"/>
</svg>